<?xml version="1.0" encoding="utf-8"?>
<!-- Generator: Adobe Illustrator 20.0.0, SVG Export Plug-In . SVG Version: 6.00 Build 0)  -->
<svg version="1.1" xmlns="http://www.w3.org/2000/svg" xmlns:xlink="http://www.w3.org/1999/xlink" x="0px" y="0px"
	 viewBox="0 0 960 560" style="enable-background:new 0 0 960 560;" xml:space="preserve">
<style type="text/css">
	.grass{fill:#8EE900;}
	.sky{fill:#CFD7EB;}
	.treefoliage{fill:none;}
	.furniture{fill:#F9FFBF;}
	.wine{fill:#93278F;}
	.wineglass{fill:#CCAACC;}
	.winebottle{fill:#009245;}
	.bottlecap{fill:#93278F;}
	.st0{fill:#006837;}
	.st1{fill:none;stroke:#000000;stroke-miterlimit:10;}
</style>
<g id="Sky">
	<rect class="sky" width="960" height="280"/>
</g>
<g id="Ground">
	<g>
		<rect y="280" class="grass" width="960" height="280"/>
	</g>
</g>
<g id="Treeline">
	<g>
		<g>
			<path class="st0" d="M960,195c-26.8-39.9-75.1-71.7-106.8-80.3c-4.2,10.6-6,62.2-15.9,64.6c-6.1-23.8-14.4-122.2-50-115.8
				c-15.6,2.8-3.3,109.4-6.2,125c-9.8,3.4-43.6-32.9-31.3-28.8c-19.7-6.7-9.6,42.9-19,43.4c-25.3,1.5,7.3-80.9-13.2-96.2
				c-3.5,5.2-7.9,8.5-13.4,10.1c-15.6-12.3-78.5-14.2-94.9-4.9c-27.5,15.7-2,53-36.7,61.3c-16.2,3.9-119.6-122.6-127.8-72.1
				c-6.1,35.8,10.2,42-20.8,75.7c1.2-1.3-86.8-187.7-115-50.8c-30-13.2-68.2-62.7-95.8-18.6c-20.2,32.4,16.5,65.3,5.5,98.8
				c-8.7,4.1-17.9-15.9-20.9-22.7C214.2,80.3,89.6,64.8,55,126.3c-13.7,1.9-36.8-17.4-55-20.2v183.1c68.4,24.5,199.2-4.8,266.8-5.6
				c89.8-1,179.7-2.9,269.5,1c91.6,3.9,183,14.4,274.3,22.7c7.5,0.7,18.1,2.7,30.2,5h110c0.9-0.7,1.7-1.4,2.5-2.2
				c2.4-2.4,4.6-4.8,6.7-7.3V195z"/>
		</g>
		<g>
			<path class="st0" d="M749.9,159.7c0.2,0.1,0.5,0.2,0.7,0.3C750.4,159.9,750.1,159.8,749.9,159.7z"/>
		</g>
		<g>
			<path class="st0" d="M0,87.6v17.6l4-0.6C4.5,98.3,3.1,92.6,0,87.6z"/>
		</g>
	</g>
</g>
<g id="Buildings">
</g>
<g id="Cricketers">
	<line class="st1" x1="120" y1="361" x2="790" y2="361"/>
	<line class="st1" x1="120" y1="361" x2="120" y2="337"/>
	<line class="st1" x1="790" y1="361" x2="790" y2="337"/>
</g>
<g id="Spectator">
</g>
<g id="Foreground">
	<path class="furniture" d="M640,485c-10,3,3,46-15,51s-29-16-29-16s0,0-5,14c-3.6,10.1,6.8,14.5,21.9,15.4V560h10.6v-10.5
		c2.8-0.1,5.6-0.3,8.4-0.5c24-2,24-56,24-56h37v67h11v-67h46.7v67H763v-67h43v67h13v-67h44v67h15v-67h45v67h12v-67h25v-13
		C960,480,650,482,640,485z"/>
	<path class="furniture" d="M579,493c0-11.6-51.5-21-115-21s-115,9.4-115,21c0,11,46.7,20.1,106.1,20.9
		c-0.2,21.4-1.8,46.1-12.1,46.1c7.8,0,29,0,29,0s-5.5-26.4-6.9-46C528.1,513.9,579,504.5,579,493z"/>
	<g>
		<path class="winebottle" d="M495.6,443.2c0,0,0-0.1,0-0.1v-5c0-1.2-1-2.1-2.1-2.1c-1.2,0-2.1,1-2.1,2.1v4.9
			c-3.9,0.8-6.9,4.4-6.9,8.6v32.2c0,4.8,3.9,8.8,8.8,8.8h0c4.8,0,8.8-3.9,8.8-8.8v-32.2C501.9,447.7,499.2,444.3,495.6,443.2z"/>
		<path class="bottlecap" d="M493.5,438.6L493.5,438.6c-1.2,0-2.1-1-2.1-2.1v-5c0-1.2,1-2.1,2.1-2.1l0,0c1.2,0,2.1,1,2.1,2.1v5
			C495.6,437.6,494.6,438.6,493.5,438.6z"/>
	</g>
	<g>
		<path class="wineglass" d="M516.9,481.3c-0.1-1.7,0-3.8,0-4.9c-0.1-1.1,0.6-3.1,1.1-4.6c3.5-0.8,6.1-3.9,6.1-7.6
			c0-0.7-0.1-1.4-0.3-2.1c-0.9-1.1-3.9-2-7.5-2s-6.5,0.8-7.5,2c-0.2,0.7-0.3,1.4-0.3,2.1c0,3.5,2.3,6.5,5.5,7.4
			c0.5,1.5,1.2,3.7,1.2,4.8c0,1,0.1,3.2,0,4.9c-4,0.2-7,1.3-7,2.7c0,1.5,3.6,2.7,8.1,2.7s8.1-1.2,8.1-2.7
			C524.5,482.6,521.1,481.4,516.9,481.3z"/>
		<ellipse class="wine" cx="516.4" cy="465.2" rx="7.5" ry="2.7"/>
	</g>
</g>
</svg>
