<?xml version="1.0" encoding="UTF-8"?>
<!-- Generator: Adobe Illustrator 20.0.0, SVG Export Plug-In . SVG Version: 6.00 Build 0)  -->
<svg xmlns="http://www.w3.org/2000/svg" xmlns:xlink="http://www.w3.org/1999/xlink" version="1.1" id="svg4611" x="0px" y="0px" viewBox="0 0 960 560" style="enable-background:new 0 0 960 560;" xml:space="preserve">
<style type="text/css">
	.st0{fill:#CFD7EB;}
	.st1{fill:#8EE900;}
	.st2{fill:#006837;}
	.st3{fill:none;stroke:#000000;stroke-miterlimit:10;}
	.st4{fill:#FFFFF0;stroke:#CCC0C0;stroke-miterlimit:10;}
	.st5{fill:#E2CCCC;stroke:#B49999;stroke-miterlimit:10;}
	.st6{opacity:0.9;fill:none;stroke:#33FF66;stroke-width:0.5;stroke-miterlimit:10;stroke-dasharray:1;enable-background:new    ;}
	.st7{fill:#C1272D;stroke:#FF7BAC;stroke-miterlimit:10;}
	.st8{fill:none;stroke:#FF7BAC;stroke-miterlimit:10;}
	.st9{fill:#C7B299;stroke:#603813;stroke-miterlimit:10;}
	.st10{fill:#2A0018;}
	.st11{fill:#F9FFBF;}
	.st12{fill:#009245;}
	.st13{fill:#93278F;}
	.st14{fill:#CCAACC;}

	.sprue{fill:none;stroke:#FF0000;stroke-width:2;stroke-miterlimit:10;}
	.backcloth{opacity:0.3;fill:#95D7E4;}
	.person1flesh{fill:#C7B299;stroke:#603813;stroke-miterlimit:10;}
	.socket{fill:none;stroke:#FF0000;stroke-width:0.5;stroke-miterlimit:10;stroke-dasharray:1;}
	.ball{opacity:0.9;fill:none;stroke:#33FF66;stroke-width:0.5;stroke-miterlimit:10;stroke-dasharray:1;}
	.liveryteam1A{fill:#FCEE21;stroke:#FBB03B;stroke-linejoin:round;stroke-miterlimit:10;}
	.liveryteam1B{fill:#1A1A1A;stroke:#666666;stroke-miterlimit:10;}
	.person2flesh{fill:#FFCCCC;stroke:#996666;stroke-miterlimit:10;}
	.liveryteam2A{fill:#662D91;stroke:#1B1464;stroke-miterlimit:10;}
	.liveryteam2B{fill:#29ABE2;stroke:#0071BC;stroke-miterlimit:10;}
	.person1hair{fill:#534741;stroke:#8C6239;stroke-linejoin:round;stroke-miterlimit:10;stroke-dasharray:1,1;}
	.person2hair{fill:#F7931E;stroke:#C1272D;stroke-miterlimit:10;}
	.st0{fill:none;}
	.st1{fill:none;stroke:#FF0000;stroke-width:0.5;stroke-miterlimit:10;stroke-dasharray:0.9803,0.9803;}
	.st2{opacity:0.8;}
	.st3{fill:none;stroke:#FF0000;stroke-width:0.5;stroke-miterlimit:10;stroke-dasharray:0.9652,0.9652;}
	.st4{fill:#1A1A1A;}
	.st5{font-family:'Verdana';}
	.st6{font-size:24px;}
	.st7{fill:none;stroke:#666666;stroke-miterlimit:10;}
	.st8{fill:none;stroke:#FF0000;stroke-width:0.5;stroke-miterlimit:10;stroke-dasharray:1;}
	.st9{fill:#534741;}
	.st10{fill:none;stroke:#8C6239;stroke-linejoin:round;}
	.st11{fill:none;stroke:#8C6239;stroke-linejoin:round;stroke-dasharray:1.0104,1.0104;}
	.st12{fill:none;stroke:#8C6239;stroke-linejoin:round;stroke-dasharray:1,1;}
	.st13{fill:none;stroke:#8C6239;stroke-linejoin:round;stroke-dasharray:0.9766,0.9766;}
	.st14{fill:none;stroke:#8C6239;stroke-linejoin:round;stroke-dasharray:0.9567,0.9567;}
	.st15{fill:none;stroke:#8C6239;stroke-linejoin:round;stroke-dasharray:0.9803,0.9803;}
	.st16{fill:#C7B299;}
	.st17{fill:none;stroke:#603813;stroke-miterlimit:10;}
	.st18{fill:none;stroke:#8C6239;stroke-linejoin:round;stroke-dasharray:1.0022,1.0022;}
	.st19{fill:none;stroke:#8C6239;stroke-linejoin:round;stroke-dasharray:1.0171,1.0171;}
	.st20{fill:#29ABE2;}
	.st21{fill:none;stroke:#0071BC;stroke-miterlimit:10;}
	.st22{font-family:'Verdana-Bold';}
	.st23{font-size:14px;}
	.st24{font-size:12px;}
	.st25{font-size:10px;}
	.st26{fill:#00FF00;}
	.st27{font-family:'MyriadPro-Regular';}
	.st28{fill:#FF0000;}
</style>
<g id="Sky">
	<rect id="rect4616" class="st0" width="960" height="280"/>
</g>
<g id="Ground">
	<g id="g4619">
		<rect id="rect4621" y="280" class="st1" width="960" height="280"/>
	</g>
</g>
<g id="Treeline">
	<g id="g4624">
		<g id="g4626">
			<path id="path4628" class="st2" d="M960,195c-26.8-39.9-75.1-71.7-106.8-80.3c-4.2,10.6-6,62.2-15.9,64.6     c-6.1-23.8-14.4-122.2-50-115.8c-15.6,2.8-3.3,109.4-6.2,125c-9.8,3.4-43.6-32.9-31.3-28.8c-19.7-6.7-9.6,42.9-19,43.4     c-25.3,1.5,7.3-80.9-13.2-96.2c-3.5,5.2-7.9,8.5-13.4,10.1c-15.6-12.3-78.5-14.2-94.9-4.9c-27.5,15.7-2,53-36.7,61.3     c-16.2,3.9-119.6-122.6-127.8-72.1c-6.1,35.8,10.2,42-20.8,75.7c1.2-1.3-86.8-187.7-115-50.8c-30-13.2-68.2-62.7-95.8-18.6     c-20.2,32.4,16.5,65.3,5.5,98.8c-8.7,4.1-17.9-15.9-20.9-22.7C214.2,80.3,89.6,64.8,55,126.3c-13.7,1.9-36.8-17.4-55-20.2v183.1     c68.4,24.5,199.2-4.8,266.8-5.6c89.8-1,179.7-2.9,269.5,1c91.6,3.9,183,14.4,274.3,22.7c7.5,0.7,18.1,2.7,30.2,5h110     c0.9-0.7,1.7-1.4,2.5-2.2c2.4-2.4,4.6-4.8,6.7-7.3V195z"/>
		</g>
		<g id="g4630">
			<path id="path4632" class="st2" d="M749.9,159.7c0.2,0.1,0.5,0.2,0.7,0.3C750.4,159.9,750.1,159.8,749.9,159.7z"/>
		</g>
		<g id="g4634">
			<path id="path4636" class="st2" d="M0,87.6v17.6l4-0.6C4.5,98.3,3.1,92.6,0,87.6z"/>
		</g>
	</g>
</g>
<g id="Buildings">
</g>
<g id="Cricketers">
	<g id="pitch">
		<line id="line4641" class="st3" x1="120" y1="409" x2="790" y2="409"/>
		<line id="line4643" class="st3" x1="120" y1="409" x2="120" y2="337"/>
		<line id="line4645" class="st3" x1="790" y1="409" x2="790" y2="337"/>
	</g>
	<g id="person-1-front" transform="translate(600, 150)">
		<g id="person-1-front-body">
			<g id="person-1-front-pelvis-group">
				<!--gid = person-1-front-pelvis--><!--replacement--><g id="person-1-front-pelvis">
						<path id="person-1-front-pelvis-shape" class="liveryteam1B" d="M169.5,124.5c0-6.1-4.9-11-11-11h-18c-6.1,0-11,4.9-11,11l0,0        c0,6.1,4.9,11,11,11h18C164.6,135.5,169.5,130.6,169.5,124.5L169.5,124.5z"/>
					</g>
				<!--gid = person-1-front-pelvis-socket-legs-right--><!--replacement--><g id="person-1-front-pelvis-socket-legs-right">
						<circle class="st0" cx="137" cy="124.5" r="5"/>
						<circle class="st1" cx="137" cy="124.5" r="5"/>
					</g>
				<!--gid = person-1-front-pelvis-socket-legs-left--><!--replacement--><g id="person-1-front-pelvis-socket-legs-left">
						<circle class="st0" cx="162" cy="124.5" r="5"/>
						<circle class="st1" cx="162" cy="124.5" r="5"/>
					</g>
			</g>
			<g id="person-1-front-arms">
				<g id="person-1-front-arms-right">
					<g id="person-1-front-arms-right-lower-group">
						<g id="person-1-front-arms-right-hand-group">
							<!--gid = person-1-front-arms-right-hand--><!--replacement--><g id="person-1-front-arms-right-hand">
									<path id="person-1-front-arms-right-hand-shape" class="person1flesh" d="M10.5,83c0,1.9,1.6,3.5,3.5,3.5h7           c1.9,0,3.5-1.6,3.5-3.5l0,0c0-1.9-1.6-3.5-3.5-3.5h-7C12.1,79.5,10.5,81.1,10.5,83L10.5,83z"/>
								</g>
							<g id="person-1-front-arms-left-hand" transform="translate(150 0) scale(-1 1) translate(-150 0)">
								<!--gid = person-1-front-arms-right-hand_1_--><!--original--><g/>
									<path id="person-1-front-arms-right-hand-shape_1_" class="st5" d="M289.5,83c0,1.9-1.6,3.5-3.5,3.5h-7           c-1.9,0-3.5-1.6-3.5-3.5l0,0c0-1.9,1.6-3.5,3.5-3.5h7C287.9,79.5,289.5,81.1,289.5,83L289.5,83z"/>
								
							</g>
							
								<ellipse id="person-1-front-arms-right-hand-ball" transform="matrix(0.7536 -0.6573 0.6573 0.7536 -49.3829 34.2522)" class="st6" cx="21" cy="83" rx="4" ry="4"/>
						</g>
						<!--gid = person-1-front-arms-right-lower--><!--replacement--><g id="person-1-front-arms-right-lower">
								<path id="person-1-front-arms-right-lower-shape" class="person1flesh" d="M28.5,83.1c0,1.9,1.4,3.4,3.1,3.4h33.8          c1.7,0,3.1-1.5,3.1-3.4v-0.3c0-1.9-1.4-3.4-3.1-3.4H31.6c-1.7,0-3.1,1.5-3.1,3.4V83.1z"/>
							</g>
						<g id="person-1-front-arms-left-lower" transform="translate(150 0) scale(-1 1) translate(-150 0)">
							<!--gid = person-1-front-arms-right-lower_1_--><!--original--><g/>
								<path id="person-1-front-arms-right-lower-shape_1_" class="st4" d="M271.5,83.1c0,1.9-1.4,3.4-3.1,3.4h-33.8          c-1.7,0-3.1-1.5-3.1-3.4v-0.3c0-1.9,1.4-3.4,3.1-3.4h33.8c1.7,0,3.1,1.5,3.1,3.4V83.1z"/>
							
						</g>
						
							<ellipse id="person-1-front-arms-right-lower-ball" transform="matrix(0.7536 -0.6573 0.6573 0.7536 -38.5427 63.1738)" class="st6" cx="65" cy="83" rx="4" ry="4"/>
						<!--gid = person-1-front-arms-right-lower-socket--><!--replacement--><g id="person-1-front-arms-right-lower-socket" class="st2">
								<ellipse transform="matrix(0.7536 -0.6573 0.6573 0.7536 -46.6729 41.4842)" class="st0" cx="32" cy="83" rx="4" ry="4"/>
								<ellipse transform="matrix(0.7536 -0.6573 0.6573 0.7536 -46.6729 41.4842)" class="st3" cx="32" cy="83" rx="4" ry="4"/>
							</g>
					</g>
					<!--gid = person-1-front-arms-right-upper--><!--replacement--><g id="person-1-front-arms-right-upper">
							<path id="person-1-front-arms-right-upper-shape" class="person1flesh" d="M72.5,83.1c0,1.9,1.2,3.4,2.7,3.4h29.6         c1.5,0,2.7-1.5,2.7-3.4v-0.3c0-1.9-1.2-3.4-2.7-3.4H75.2c-1.5,0-2.7,1.5-2.7,3.4V83.1z"/>
						</g>
					<g id="person-1-front-arms-left-upper" transform="translate(150 0) scale(-1 1) translate(-150 0)">
						<!--gid = person-1-front-arms-right-upper_1_--><!--original--><g/>
							<path id="person-1-front-arms-right-upper-shape_1_" class="st4" d="M227.5,83.1c0,1.9-1.2,3.4-2.7,3.4h-29.6         c-1.5,0-2.7-1.5-2.7-3.4v-0.3c0-1.9,1.2-3.4,2.7-3.4h29.6c1.5,0,2.7,1.5,2.7,3.4V83.1z"/>
						
					</g>
					
						<ellipse id="person-1-front-arms-right-upper-ball" transform="matrix(0.7536 -0.6573 0.6573 0.7536 -28.9343 88.8089)" class="st6" cx="104" cy="83" rx="4" ry="4"/>
					<!--gid = person-1-front-arms-right-upper-socket--><!--replacement--><g id="person-1-front-arms-right-upper-socket" class="st2">
							<ellipse transform="matrix(0.7536 -0.6573 0.6573 0.7536 -35.8319 70.4062)" class="st0" cx="76" cy="83" rx="4" ry="4"/>
							<ellipse transform="matrix(0.7536 -0.6573 0.6573 0.7536 -35.8319 70.4062)" class="st3" cx="76" cy="83" rx="4" ry="4"/>
						</g>
				</g>
			</g>
			<g id="person-1-front-legs">
				<g id="person-1-front-legs-right">
					<g id="person-1-front-legs-right-upper-group">
						<g id="person-1-front-legs-right-lower-group">
							<g id="person-1-front-legs-right-foot-group">
								<!--gid = person-1-front-legs-right-foot--><!--replacement--><g id="person-1-front-legs-right-foot">
										<path id="person-1-front-legs-right-foot-shape" class="liveryteam1B" d="M145.5,259.5c0,2.8-2.2,2-5,2l0,0            c-2.8,0-5,0.8-5-2v-3c0-2.8,2.2-5,5-5l0,0c2.8,0,5,2.2,5,5V259.5z"/>
									</g>
								<g id="person-1-front-legs-left-foot" transform="translate(150 0) scale(-1 1) translate(-150 0)">
									<!--gid = person-1-front-legs-right-foot_1_--><!--original--><g/>
										<path id="person-1-front-legs-right-foot-shape_1_" class="st5" d="M160.5,259.5c0,2.8,2.2,2,5,2l0,0c2.8,0,5,0.8,5-2v-3            c0-2.8-2.2-5-5-5l0,0c-2.8,0-5,2.2-5,5V259.5z"/>
									
								</g>
								<circle id="person-1-front-legs-right-foot-ball" class="st6" cx="134.5" cy="256.5" r="5"/>
							</g>
							<!--gid = person-1-front-legs-right-lower--><!--replacement--><g id="person-1-front-legs-right-lower">
									<path id="person-1-front-legs-right-lower-shape" class="person1flesh" d="M145.5,197.5c0-2.8-2.2-5-5-5l0,0           c-2.8,0-5,2.2-5,5v42c0,2.8,2.2,5,5,5l0,0c2.8,0,5-2.2,5-5V197.5z"/>
								</g>
							<g id="person-1-front-legs-left-lower" transform="translate(150 0) scale(-1 1) translate(-150 0)">
								<!--gid = person-1-front-legs-right-lower_1_--><!--original--><g/>
									<path id="person-1-front-legs-right-lower-shape_1_" class="st4" d="M160.5,197.5c0-2.8,2.2-5,5-5l0,0c2.8,0,5,2.2,5,5v42           c0,2.8-2.2,5-5,5l0,0c-2.8,0-5-2.2-5-5V197.5z"/>
								
							</g>
							<circle id="person-1-front-legs-right-lower-ball" class="st6" cx="134.5" cy="197.5" r="5"/>
							<!--gid = person-1-front-legs-right-lower-socket--><!--replacement--><g id="person-1-front-legs-right-lower-socket">
									<circle class="st1" cx="140.5" cy="239.5" r="5"/>
								</g>
						</g>
						<!--gid = person-1-front-legs-right-upper--><!--replacement--><g id="person-1-front-legs-right-upper">
								<path id="person-1-front-legs-right-upper-shape" class="person1flesh" d="M145.5,146.5c0-2.8-2.2-5-5-5h-6          c-2.8,0-5,2.2-5,5l6,38c0,2.8,2.2,5,5,5l0,0c2.8,0,5-2.2,5-5V146.5z"/>
							</g>
						<g id="person-1-front-legs-left-upper" transform="translate(150 0) scale(-1 1) translate(-150 0)">
							<!--gid = person-1-front-legs-right-upper_1_--><!--original--><g/>
								<path id="person-1-front-legs-right-upper-shape_1_" class="st4" d="M160.5,146.5c0-2.8,2.2-5,5-5l0,0c2.8,0,5,2.2,5,5v38          c0,2.8-2.2,5-5,5l0,0c-2.8,0-5-2.2-5-5V146.5z"/>
							
						</g>
						<circle id="person-1-front-legs-upper-right-ball" class="st6" cx="134.5" cy="146.5" r="5"/>
						<!--gid = person-1-front-legs-right-upper-socket--><!--replacement--><g id="person-1-front-legs-right-upper-socket">
								<circle class="st1" cx="140.5" cy="184.5" r="5"/>
							</g>
					</g>
				</g>
			</g>
			<g id="person-1-right-headneck" transform="translate(-600, 0)">
				<g id="person-1-right-neck-group">
					<g id="person-1-right-head-group">
						<g id="person-1-right-head">
							<path id="person-1-right-head-shape" class="st5" d="M765.5,42.9l-4-3.6v-2.7c0-3.6-2.8-6.1-6.9-6.1h-4.2         c-4.1,0-7.9,2.5-7.9,6.1v8.8c0,3.6,3.8,7.1,7.9,7.1h4.2c4.1,0,6.9-3.5,6.9-7.1v-2.1L765.5,42.9z"/>
							<g id="g4708">
								<path id="path4710" class="st7" d="M763.3,36.5c-1.6-5-6.1-8-11.3-8s-9.7,3-11.3,8H763.3z"/>
								<path id="path4712" class="st7" d="M761,36.5c-1.3-5-4.9-8-9-8s-7.7,3-9,8H761z"/>
								<path id="path4714" class="st7" d="M755.8,36.5c-0.5-5-2-8-3.8-8s-3.2,3-3.8,8H755.8z"/>
								<line id="line4716" class="st8" x1="763.3" y1="36.5" x2="772" y2="38"/>
							</g>
						</g>
						<circle id="person-1-right-head-ball" class="st6" cx="749.5" cy="51" r="5"/>
					</g>
					<!--gid = person-1-right-neck--><!--replacement--><g id="person-1-right-neck">
							<path id="person-1-right-neck-shape" class="person1flesh" d="M754.5,62.5c0-2.8-2.2-5-5-5l0,0c-2.8,0-5,2.2-5,5v6         c0,2.8,2.2,5,5,5l0,0c2.8,0,5-2.2,5-5V62.5z"/>
						</g>
					<circle id="person-1-right-headneck-ball" class="st6" cx="749.5" cy="68.5" r="5"/>
					<!--gid = person-1-right-neck-socket--><!--replacement--><g id="person-1-right-neck-socket">
							<circle class="st1" cx="749.5" cy="62.5" r="5"/>
						</g>
				</g>
			</g>
			<g id="person-1-front-torso-group">
				<!--gid = person-1-front-torso--><!--replacement--><g id="person-1-front-torso">
						<path id="person-1-front-torso-shape" class="liveryteam1A" d="M170.5,86.8c1.7,0,3-1.8,3-3.6v-0.3c0-1.9-1.3-3.4-3-3.4h-7.1        h-3.2h-20.5h-3.2h-7.1c-1.7,0-3,1.5-3,3.4v0.3c0,1.9,1.3,3.6,3,3.6V92v9.5c0,6.6,4.6,12,10.2,12h20.5c5.7,0,10.2-5.4,10.2-12        V92V86.8z"/>
						<g>
							<text transform="matrix(1 0 0 1 135 107)" class="st4 st5 st6">01</text>
							<text transform="matrix(1 0 0 1 135 107)" class="st7 st5 st6">01</text>
						</g>
					</g>
				<!--gid = person-1-front-torso-socket-arms-right--><!--replacement--><g id="person-1-front-torso-socket-arms-right" class="st2">
						<ellipse transform="matrix(0.7536 -0.6573 0.6573 0.7536 -22.527 105.9014)" class="st0" cx="130" cy="83" rx="4" ry="4"/>
						<ellipse transform="matrix(0.7536 -0.6573 0.6573 0.7536 -22.527 105.9014)" class="st3" cx="130" cy="83" rx="4" ry="4"/>
					</g>
				<!--gid = person-1-front-torso-socket-arms-left--><!--replacement--><g id="person-1-front-torso-socket-arms-left" class="st2">
						<ellipse transform="matrix(0.6573 -0.7536 0.7536 0.6573 -4.2938 156.5568)" class="st0" cx="170" cy="83" rx="4" ry="4"/>
						<ellipse transform="matrix(0.6573 -0.7536 0.7536 0.6573 -4.2938 156.5568)" class="st3" cx="170" cy="83" rx="4" ry="4"/>
					</g>
				<circle id="person-1-front-headneck-socket" cx="150" cy="79.5" r="5"/>
			</g>
		</g>
	</g>
	<g id="person-2-right" transform="translate(-600, -150)">
		<g id="person-2-right-body">
			<g id="person-2-right-headneck">
				<g id="person-2-right-neck-group">
					<g id="person-2-right-head-group">
						<g id="person-2-right-head">
							<path id="person-2-right-head-shape" class="st9" d="M765.5,419l-4-3.6v-2.7c0-3.6-2.8-6.1-6.9-6.1h-4.2         c-4.1,0-7.9,2.5-7.9,6.1v8.8c0,3.6,3.8,7.1,7.9,7.1h4.2c4.1,0,6.9-3.5,6.9-7.1v-2.1L765.5,419z"/>
							<g id="g4742">
								<path id="path4744" class="st10" d="M752.4,421.6c1.8,0,3.6,0.1,5.4-0.2c0.5-0.1,1-0.1,1.4-0.2s0.8-0.2,1.2-0.4          c0.4-0.1,0.8-0.1,1.1-0.3c0.3-0.1,0.7-0.3,1-0.3c0.7,0.1,1.2,1.1,1.5,1.7s0.4,1.2,0.6,1.8c0.2,0.5,0.5,0.9,0.6,1.4          c0.1,0.6,0.3,1.2,0.4,1.7c0.1,0.3,0,0.4,0.2,0.7c0.1,0.2,0.2,0.5,0.3,0.7c0.1,0.5,0.3,1,0.4,1.6c0,0.2,0,0.5,0.1,0.8          s0.6,0.7,0.8,0.9c0.5,0.4,1,0.8,1.5,1.2c0.1,0.1,0.7,0.4,0.7,0.6c0,0.4-1,0.5-1.3,0.5c-0.8,0.2-1.7,0.2-2.6,0.3          c-0.8,0-1.5-0.2-2.3-0.4c-1.2-0.4-2.3-0.7-3.5-1.1c-0.7-0.2-1.4-0.5-2.1-0.8c-0.7-0.4-1.5-0.7-2.3-1.1          c-0.5-0.3-1.1-0.6-1.6-0.9c-0.4-0.2-0.6-0.4-0.9-0.6c-0.7-0.5-1.5-0.8-2.2-1.2c-0.9-0.5-1.3-1.2-1.6-2.3          c-0.3-0.9-0.3-1.9-0.3-2.9c0-0.3,0-0.6,0.1-0.9c0.2-0.5,0.6-0.5,1-0.5c0.6,0,1.5-0.2,1.9,0.3"/>
							</g>
							<path id="path4746" d="M762,411.1c0,1-2.8,4-8,4c-0.5,0-3.5,1-4,1c-5.2,0-9.5,3.2-9.5-2c0-0.5,0-1.5,0-2         c0-5.2,3.3-8.5,8.5-8.5c0.5,0,1.5,0,2,0C756.2,403.6,762,405.9,762,411.1C762,411.6,762,410.6,762,411.1z"/>
						</g>
						<circle id="person-2-right-head-ball" class="st6" cx="749.5" cy="427.1" r="5"/>
					</g>
					<!--gid = person-2-right-neck--><!--replacement--><g id="person-2-right-neck">
							<path id="person-2-right-neck-shape" class="person2flesh" d="M754.5,362.5c0-2.8-2.2-5-5-5l0,0c-2.8,0-5,2.2-5,5v6         c0,2.8,2.2,5,5,5l0,0c2.8,0,5-2.2,5-5V362.5z"/>
						</g>
					<circle id="person-2-right-headneck-ball" class="st6" cx="749.5" cy="433.5" r="5"/>
					<!--gid = person-2-right-neck-socket--><!--replacement--><g id="person-2-right-neck-socket">
							<circle class="st1" cx="749.5" cy="362.5" r="5"/>
						</g>
				</g>
			</g>
			<g id="person-2-right-pelvis-group">
				<!--gid = person-2-right-pelvis-socket-legs-left--><!--replacement--><g id="person-2-right-pelvis-socket-legs-left">
						<circle class="st1" cx="750.5" cy="424" r="5"/>
					</g>
				<!--gid = person-2-right-pelvis--><!--replacement--><g id="person-2-right-pelvis">
						<path id="person-2-right-pelvis-shape" class="liveryteam2B" d="M761,424.5c0-6.1-1.4-11-5-11h-12c-3.6,0-6.5,4.9-6.5,11l0,0        c0,6.1,2.9,11,6.5,11h12C759.6,435.5,761,430.6,761,424.5L761,424.5z"/>
					</g>
				<!--gid = person-2-right-pelvis-socket-legs-right--><!--replacement--><g id="person-2-right-pelvis-socket-legs-right">
						<circle class="st1" cx="750.5" cy="424" r="5"/>
					</g>
			</g>
			<g id="person-2-right-torso-group">
				<!--gid = person-2-right-torso--><!--replacement--><g id="person-2-right-torso">
						<path id="person-2-right-torso-shape" class="person2flesh" d="M762.5,393c0-4.5-5.2-13.5-11.5-13.5H749        c-6.4,0-11.5,5.4-11.5,12v10c0,6.6,5.2,12,11.5,12h1.9c6.4,0,9-5.5,9-14.5C760,399,762.5,398.5,762.5,393z"/>
						<path class="liveryteam2A" d="M754.5,380.4c-0.1,1.3-0.7,2.4-1.5,3.2c-0.1,0.7-0.4,1.4-0.9,2c-1.5,1.7-4,1.8-5.6,0.4        c-1.1-1-1.5-2.4-1.3-3.7c-0.3-0.6-0.5-1.2-0.5-1.8c-4.1,1.8-7,6.1-7,11v10c0,6.6,5.2,12,11.5,12h1.9c6.4,0,9-5.5,9-14.5        c0,0,2.5-0.5,2.5-6C762.5,389.4,759.1,382.8,754.5,380.4z"/>
					</g>
				<circle id="person-2-right-headneck-socket" cx="749.5" cy="433.2" r="5"/>
				<!--gid = person-2-right-torso-socket-arms-right--><!--replacement--><g id="person-2-right-torso-socket-arms-right" class="st2">
						<ellipse transform="matrix(0.6573 -0.7536 0.7536 0.6573 -31.9649 695.7035)" class="st3" cx="749" cy="383" rx="4" ry="4"/>
					</g>
				<!--gid = person-2-right-torso-socket-arms-left--><!--replacement--><g id="person-2-right-torso-socket-arms-left" class="st2">
						<ellipse transform="matrix(0.7536 -0.6573 0.6573 0.7536 -67.209 586.6972)" class="st3" cx="749" cy="383" rx="4" ry="4"/>
					</g>
			</g>
			<g id="person-2-right-legs-right">
				<g id="person-2-right-legs-right-upper-group">
					<g id="person-2-right-legs-right-lower-group">
						<g id="person-2-right-legs-right-foot-group">
							<!--gid = person-2-right-legs-right-foot--><!--replacement--><g id="person-2-right-legs-right-foot">
									<path id="person-2-right-legs-right-foot-shape" class="liveryteam2A" d="M770,561.5l-14.9-6.9c-0.7-1.8-2.5-3.1-4.6-3.1           c-2.8,0-5,2.2-5,5v3c0,2.8,2.2,2,5,2c1.5,0,2.8,0.2,3.7,0H770z"/>
								</g>
							<circle id="person-2-right-legs-right-foot-ball" class="st6" cx="750.5" cy="556.5" r="5"/>
						</g>
						<!--gid = person-2-right-legs-right-lower--><!--replacement--><g id="person-2-right-legs-right-lower">
								<path id="person-2-right-legs-right-lower-shape" class="person2flesh" d="M755.5,497.5c0-2.8-2.2-5-5-5l0,0          c-2.8,0-5,2.2-5,5v42c0,2.8,2.2,5,5,5l0,0c2.8,0,5-2.2,5-5V497.5z"/>
							</g>
						<!--gid = person-2-right-legs-right-lower-socket--><!--replacement--><g id="person-2-right-legs-right-lower-socket">
								<circle class="st1" cx="750.5" cy="539.5" r="5"/>
							</g>
						<circle id="person-2-right-legs-right-lower-ball" class="st6" cx="750.5" cy="514.6" r="5"/>
					</g>
					<!--gid = person-2-right-legs-right-upper--><!--replacement--><g id="person-2-right-legs-right-upper">
							<path id="person-2-right-legs-right-upper-shape" class="person2flesh" d="M757,446.5c0-2.8-3.7-5-6.5-5l0,0         c-2.8,0-7.5,2.2-7.5,5l2.5,38c0,2.8,2.2,5,5,5l0,0c2.8,0,5-2.2,5-5L757,446.5z"/>
						</g>
					<circle id="person-2-right-legs-upper-right-ball" class="st6" cx="750.5" cy="476.6" r="5"/>
					<!--gid = person-2-right-legs-right-upper-socket--><!--replacement--><g id="person-2-right-legs-right-upper-socket">
							<circle class="st1" cx="750.5" cy="484.5" r="5"/>
						</g>
				</g>
			</g>
			<g id="person-2-right-arms-right">
				<g id="person-2-right-arms-right-lower-group">
					<g id="person-2-right-arms-right-hand-group">
						<!--gid = person-2-right-arms-right-hand--><!--replacement--><g id="person-2-right-arms-right-hand">
								<path id="person-2-right-arms-right-hand-shape" class="person2flesh" d="M716,476.5c1.9,0,3.5-1.6,3.5-3.5v-7          c0-1.9-1.6-3.5-3.5-3.5l0,0c-1.9,0-3.5,1.6-3.5,3.5v7C712.5,474.9,714.1,476.5,716,476.5L716,476.5z"/>
							</g>
						
							<ellipse id="person-2-right-arms-right-hand-ball" transform="matrix(0.6573 -0.7536 0.7536 0.6573 -118.7248 734.7689)" class="st6" cx="748.6" cy="497.9" rx="4" ry="4"/>
					</g>
					<!--gid = person-2-right-arms-right-lower--><!--replacement--><g id="person-2-right-arms-right-lower">
							<path id="person-2-right-arms-right-lower-shape" class="person2flesh" d="M716.1,458.5c1.9,0,3.4-1.4,3.4-3.1v-33.8         c0-1.7-1.5-3.1-3.4-3.1h-0.3c-1.9,0-3.4,1.4-3.4,3.1v33.8c0,1.7,1.5,3.1,3.4,3.1H716.1z"/>
						</g>
					
						<ellipse id="person-2-right-arms-right-lower-ball" transform="matrix(0.6572 -0.7537 0.7537 0.6572 -93.5924 723.5003)" class="st6" cx="748.6" cy="464.6" rx="4" ry="4"/>
					<!--gid = person-2-right-arms-right-lower-socket--><!--replacement--><g id="person-2-right-arms-right-lower-socket" class="st2">
							<ellipse transform="matrix(0.6572 -0.7537 0.7537 0.6572 -97.5113 695.5837)" class="st3" cx="716" cy="455" rx="4" ry="4"/>
						</g>
				</g>
				<!--gid = person-2-right-arms-right-upper--><!--replacement--><g id="person-2-right-arms-right-upper">
						<path id="person-2-right-arms-right-upper-shape" class="person2flesh" d="M716.1,414.5c1.9,0,3.4-1.2,3.4-2.7v-29.6        c0-1.5-1.5-2.7-3.4-2.7h-0.3c-1.9,0-3.4,1.2-3.4,2.7v29.6c0,1.5,1.5,2.7,3.4,2.7H716.1z"/>
					</g>
				
					<ellipse id="person-2-right-arms-right-upper-ball" transform="matrix(0.6572 -0.7537 0.7537 0.6572 -72.4893 713.903)" class="st6" cx="748.6" cy="436.6" rx="4" ry="4"/>
				<!--gid = person-2-right-arms-right-upper-socket--><!--replacement--><g id="person-2-right-arms-right-upper-socket" class="st2">
						<ellipse transform="matrix(0.6572 -0.7537 0.7537 0.6572 -64.3492 680.5033)" class="st3" cx="716" cy="411" rx="4" ry="4"/>
					</g>
			</g>
		</g>
	</g>
</g>
<g id="Spectator">
</g>
<g id="Foreground">
	<path id="path4813" class="st11" d="M640,485c-10,3,3,46-15,51s-29-16-29-16s0,0-5,14c-3.6,10.1,6.8,14.5,21.9,15.4V560h10.6v-10.5   c2.8-0.1,5.6-0.3,8.4-0.5c24-2,24-56,24-56h37v67h11v-67h46.7v67H763v-67h43v67h13v-67h44v67h15v-67h45v67h12v-67h25v-13   C960,480,650,482,640,485z"/>
	<path id="path4815" class="st11" d="M579,493c0-11.6-51.5-21-115-21s-115,9.4-115,21c0,11,46.7,20.1,106.1,20.9   c-0.2,21.4-1.8,46.1-12.1,46.1c7.8,0,29,0,29,0s-5.5-26.4-6.9-46C528.1,513.9,579,504.5,579,493z"/>
	<g id="g4817">
		<path id="path4819" class="st12" d="M495.6,443.2v-0.1v-5c0-1.2-1-2.1-2.1-2.1c-1.2,0-2.1,1-2.1,2.1v4.9c-3.9,0.8-6.9,4.4-6.9,8.6    v32.2c0,4.8,3.9,8.8,8.8,8.8l0,0c4.8,0,8.8-3.9,8.8-8.8v-32.2C501.9,447.7,499.2,444.3,495.6,443.2z"/>
		<path id="path4821" class="st13" d="M493.5,438.6L493.5,438.6c-1.2,0-2.1-1-2.1-2.1v-5c0-1.2,1-2.1,2.1-2.1l0,0    c1.2,0,2.1,1,2.1,2.1v5C495.6,437.6,494.6,438.6,493.5,438.6z"/>
	</g>
	<g id="g4823">
		<path id="path4825" class="st14" d="M516.9,481.3c-0.1-1.7,0-3.8,0-4.9c-0.1-1.1,0.6-3.1,1.1-4.6c3.5-0.8,6.1-3.9,6.1-7.6    c0-0.7-0.1-1.4-0.3-2.1c-0.9-1.1-3.9-2-7.5-2s-6.5,0.8-7.5,2c-0.2,0.7-0.3,1.4-0.3,2.1c0,3.5,2.3,6.5,5.5,7.4    c0.5,1.5,1.2,3.7,1.2,4.8c0,1,0.1,3.2,0,4.9c-4,0.2-7,1.3-7,2.7c0,1.5,3.6,2.7,8.1,2.7c4.5,0,8.1-1.2,8.1-2.7    C524.5,482.6,521.1,481.4,516.9,481.3z"/>
		<ellipse id="ellipse4827" class="st13" cx="516.4" cy="465.2" rx="7.5" ry="2.7"/>
	</g>
</g>
</svg>
