<?xml version="1.0" encoding="UTF-8"?>
<svg version="1.1" xmlns="http://www.w3.org/2000/svg" xmlns:xlink="http://www.w3.org/1999/xlink" x="0" y="0" width="600" height="600" viewBox="0, 0, 600, 600">
  <g id="Wall">
    <g>
      <path d="M84.5,36.5 L192.5,36.5 L192.5,108.5 L84.5,108.5 L84.5,36.5 z" fill="#A1BFBF"/>
      <path d="M84.5,36.5 L192.5,36.5 L192.5,108.5 L84.5,108.5 L84.5,36.5 z" fill-opacity="0" stroke="#000000" stroke-width="1"/>
    </g>
    <g>
      <path d="M360.5,36.5 L480.5,36.5 L480.5,108.5 L360.5,108.5 L360.5,36.5 z" fill="#CCC592"/>
      <path d="M360.5,36.5 L480.5,36.5 L480.5,108.5 L360.5,108.5 L360.5,36.5 z" fill-opacity="0" stroke="#000000" stroke-width="1"/>
    </g>
  </g>
  <g id="interviewers">
    <g>
      <path d="M92.5,216.5 L124.5,216.5 C135.546,216.5 144.5,229.931 144.5,246.5 L144.5,294.5 C144.5,311.069 135.546,324.5 124.5,324.5 L92.5,324.5 C81.454,324.5 72.5,311.069 72.5,294.5 L72.5,246.5 C72.5,229.931 81.454,216.5 92.5,216.5 z" fill="#CCC792"/>
      <path d="M92.5,216.5 L124.5,216.5 C135.546,216.5 144.5,229.931 144.5,246.5 L144.5,294.5 C144.5,311.069 135.546,324.5 124.5,324.5 L92.5,324.5 C81.454,324.5 72.5,311.069 72.5,294.5 L72.5,246.5 C72.5,229.931 81.454,216.5 92.5,216.5 z" fill-opacity="0" stroke="#000000" stroke-width="1"/>
    </g>
    <g>
      <path d="M282.5,216.5 L294.5,216.5 C311.069,216.5 324.5,228.253 324.5,242.75 L324.5,274.25 C324.5,288.747 311.069,300.5 294.5,300.5 L282.5,300.5 C265.931,300.5 252.5,288.747 252.5,274.25 L252.5,242.75 C252.5,228.253 265.931,216.5 282.5,216.5 z" fill="#A092CC"/>
      <path d="M282.5,216.5 L294.5,216.5 C311.069,216.5 324.5,228.253 324.5,242.75 L324.5,274.25 C324.5,288.747 311.069,300.5 294.5,300.5 L282.5,300.5 C265.931,300.5 252.5,288.747 252.5,274.25 L252.5,242.75 C252.5,228.253 265.931,216.5 282.5,216.5 z" fill-opacity="0" stroke="#000000" stroke-width="1"/>
    </g>
    <g>
      <path d="M324.5,216.5 L324.5,216.5 C331.127,216.5 336.5,221.873 336.5,228.5 L336.5,276.5 C336.5,283.127 331.127,288.5 324.5,288.5 L324.5,288.5 C317.873,288.5 312.5,283.127 312.5,276.5 L312.5,228.5 C312.5,221.873 317.873,216.5 324.5,216.5 z" fill="#A092CC"/>
      <path d="M324.5,216.5 L324.5,216.5 C331.127,216.5 336.5,221.873 336.5,228.5 L336.5,276.5 C336.5,283.127 331.127,288.5 324.5,288.5 L324.5,288.5 C317.873,288.5 312.5,283.127 312.5,276.5 L312.5,228.5 C312.5,221.873 317.873,216.5 324.5,216.5 z" fill-opacity="0" stroke="#000000" stroke-width="1"/>
    </g>
    <g>
      <path d="M476.5,216.5 L508.5,216.5 C519.546,216.5 528.5,229.931 528.5,246.5 L528.5,306.5 C528.5,323.069 519.546,336.5 508.5,336.5 L476.5,336.5 C465.454,336.5 456.5,323.069 456.5,306.5 L456.5,246.5 C456.5,229.931 465.454,216.5 476.5,216.5 z" fill="#FFFFFF"/>
      <path d="M476.5,216.5 L508.5,216.5 C519.546,216.5 528.5,229.931 528.5,246.5 L528.5,306.5 C528.5,323.069 519.546,336.5 508.5,336.5 L476.5,336.5 C465.454,336.5 456.5,323.069 456.5,306.5 L456.5,246.5 C456.5,229.931 465.454,216.5 476.5,216.5 z" fill-opacity="0" stroke="#000000" stroke-width="1"/>
    </g>
    <g>
      <path d="M284.5,144.5 L292.5,144.5 C303.546,144.5 312.5,154.574 312.5,167 L312.5,194 C312.5,206.426 303.546,216.5 292.5,216.5 L284.5,216.5 C273.454,216.5 264.5,206.426 264.5,194 L264.5,167 C264.5,154.574 273.454,144.5 284.5,144.5 z" fill="#FFFFFF"/>
      <path d="M284.5,144.5 L292.5,144.5 C303.546,144.5 312.5,154.574 312.5,167 L312.5,194 C312.5,206.426 303.546,216.5 292.5,216.5 L284.5,216.5 C273.454,216.5 264.5,206.426 264.5,194 L264.5,167 C264.5,154.574 273.454,144.5 284.5,144.5 z" fill-opacity="0" stroke="#000000" stroke-width="1"/>
    </g>
    <g>
      <path d="M252.5,216.5 L252.5,216.5 C259.127,216.5 264.5,221.873 264.5,228.5 L264.5,276.5 C264.5,283.127 259.127,288.5 252.5,288.5 L252.5,288.5 C245.873,288.5 240.5,283.127 240.5,276.5 L240.5,228.5 C240.5,221.873 245.873,216.5 252.5,216.5 z" fill="#A092CC"/>
      <path d="M252.5,216.5 L252.5,216.5 C259.127,216.5 264.5,221.873 264.5,228.5 L264.5,276.5 C264.5,283.127 259.127,288.5 252.5,288.5 L252.5,288.5 C245.873,288.5 240.5,283.127 240.5,276.5 L240.5,228.5 C240.5,221.873 245.873,216.5 252.5,216.5 z" fill-opacity="0" stroke="#000000" stroke-width="1"/>
    </g>
    <g>
      <path d="M488.5,144.5 L496.5,144.5 C507.546,144.5 516.5,154.574 516.5,167 L516.5,194 C516.5,206.426 507.546,216.5 496.5,216.5 L488.5,216.5 C477.454,216.5 468.5,206.426 468.5,194 L468.5,167 C468.5,154.574 477.454,144.5 488.5,144.5 z" fill="#FFFFFF"/>
      <path d="M488.5,144.5 L496.5,144.5 C507.546,144.5 516.5,154.574 516.5,167 L516.5,194 C516.5,206.426 507.546,216.5 496.5,216.5 L488.5,216.5 C477.454,216.5 468.5,206.426 468.5,194 L468.5,167 C468.5,154.574 477.454,144.5 488.5,144.5 z" fill-opacity="0" stroke="#000000" stroke-width="1"/>
    </g>
    <g>
      <path d="M104.5,144.5 L112.5,144.5 C123.546,144.5 132.5,154.574 132.5,167 L132.5,194 C132.5,206.426 123.546,216.5 112.5,216.5 L104.5,216.5 C93.454,216.5 84.5,206.426 84.5,194 L84.5,167 C84.5,154.574 93.454,144.5 104.5,144.5 z" fill="#FFFFFF"/>
      <path d="M104.5,144.5 L112.5,144.5 C123.546,144.5 132.5,154.574 132.5,167 L132.5,194 C132.5,206.426 123.546,216.5 112.5,216.5 L104.5,216.5 C93.454,216.5 84.5,206.426 84.5,194 L84.5,167 C84.5,154.574 93.454,144.5 104.5,144.5 z" fill-opacity="0" stroke="#000000" stroke-width="1"/>
    </g>
    <g>
      <path d="M84.5,216.5 L84.5,216.5 C91.127,216.5 96.5,221.873 96.5,228.5 L96.5,276.5 C96.5,283.127 91.127,288.5 84.5,288.5 L84.5,288.5 C77.873,288.5 72.5,283.127 72.5,276.5 L72.5,228.5 C72.5,221.873 77.873,216.5 84.5,216.5 z" fill="#CCC792"/>
      <path d="M84.5,216.5 L84.5,216.5 C91.127,216.5 96.5,221.873 96.5,228.5 L96.5,276.5 C96.5,283.127 91.127,288.5 84.5,288.5 L84.5,288.5 C77.873,288.5 72.5,283.127 72.5,276.5 L72.5,228.5 C72.5,221.873 77.873,216.5 84.5,216.5 z" fill-opacity="0" stroke="#000000" stroke-width="1"/>
    </g>
  </g>
  <g id="Furniture">
    <g>
      <path d="M36.5,288.5 L564.5,288.5 L600.5,444.5 L0.5,444.5 L36.5,288.5 z" fill="#6A5E5E"/>
      <path d="M36.5,288.5 L564.5,288.5 L600.5,444.5 L0.5,444.5 L36.5,288.5 z" fill-opacity="0" stroke="#000000" stroke-width="1"/>
    </g>
    <g>
      <path d="M244.923,269.602 L244.923,269.602 C249.443,264.755 255.508,263.065 258.47,265.827 L279.923,285.832 C282.885,288.594 281.622,294.763 277.102,299.61 L277.102,299.61 C272.582,304.457 266.517,306.147 263.555,303.385 L242.102,283.379 C239.14,280.617 240.403,274.449 244.923,269.602 z" fill="#A092CC"/>
      <path d="M244.923,269.602 L244.923,269.602 C249.443,264.755 255.508,263.065 258.47,265.827 L279.923,285.832 C282.885,288.594 281.622,294.763 277.102,299.61 L277.102,299.61 C272.582,304.457 266.517,306.147 263.555,303.385 L242.102,283.379 C239.14,280.617 240.403,274.449 244.923,269.602 z" fill-opacity="0" stroke="#000000" stroke-width="1"/>
    </g>
    <g>
      <path d="M76.923,269.602 L76.923,269.602 C81.443,264.755 87.508,263.065 90.47,265.827 L111.923,285.832 C114.885,288.594 113.622,294.763 109.102,299.61 L109.102,299.61 C104.582,304.457 98.517,306.147 95.555,303.385 L74.102,283.379 C71.14,280.617 72.403,274.449 76.923,269.602 z" fill="#CCC792"/>
      <path d="M76.923,269.602 L76.923,269.602 C81.443,264.755 87.508,263.065 90.47,265.827 L111.923,285.832 C114.885,288.594 113.622,294.763 109.102,299.61 L109.102,299.61 C104.582,304.457 98.517,306.147 95.555,303.385 L74.102,283.379 C71.14,280.617 72.403,274.449 76.923,269.602 z" fill-opacity="0" stroke="#000000" stroke-width="1"/>
    </g>
    <g>
      <path d="M328.49,270.173 L328.49,270.173 C332.002,275.794 332.064,282.09 328.63,284.236 L303.754,299.78 C300.319,301.927 294.688,299.11 291.176,293.49 L291.176,293.49 C287.664,287.869 287.601,281.573 291.036,279.427 L315.912,263.883 C319.346,261.737 324.978,264.553 328.49,270.173 z" fill="#A092CC"/>
      <path d="M328.49,270.173 L328.49,270.173 C332.002,275.794 332.064,282.09 328.63,284.236 L303.754,299.78 C300.319,301.927 294.688,299.11 291.176,293.49 L291.176,293.49 C287.664,287.869 287.601,281.573 291.036,279.427 L315.912,263.883 C319.346,261.737 324.978,264.553 328.49,270.173 z" fill-opacity="0" stroke="#000000" stroke-width="1"/>
    </g>
  </g>
  <g id="interviewee">
    <g>
      <path d="M270.5,420.5 L306.5,420.5 C316.441,420.5 324.5,432.439 324.5,447.167 L324.5,489.833 C324.5,504.561 316.441,516.5 306.5,516.5 L270.5,516.5 C260.559,516.5 252.5,504.561 252.5,489.833 L252.5,447.167 C252.5,432.439 260.559,420.5 270.5,420.5 z" fill="#FFFFFF"/>
      <path d="M270.5,420.5 L306.5,420.5 C316.441,420.5 324.5,432.439 324.5,447.167 L324.5,489.833 C324.5,504.561 316.441,516.5 306.5,516.5 L270.5,516.5 C260.559,516.5 252.5,504.561 252.5,489.833 L252.5,447.167 C252.5,432.439 260.559,420.5 270.5,420.5 z" fill-opacity="0" stroke="#000000" stroke-width="1"/>
    </g>
    <g>
      <path d="M284.5,348.5 L292.5,348.5 C303.546,348.5 312.5,358.574 312.5,371 L312.5,398 C312.5,410.426 303.546,420.5 292.5,420.5 L284.5,420.5 C273.454,420.5 264.5,410.426 264.5,398 L264.5,371 C264.5,358.574 273.454,348.5 284.5,348.5 z" fill="#FFFFFF"/>
      <path d="M284.5,348.5 L292.5,348.5 C303.546,348.5 312.5,358.574 312.5,371 L312.5,398 C312.5,410.426 303.546,420.5 292.5,420.5 L284.5,420.5 C273.454,420.5 264.5,410.426 264.5,398 L264.5,371 C264.5,358.574 273.454,348.5 284.5,348.5 z" fill-opacity="0" stroke="#000000" stroke-width="1"/>
    </g>
    <g>
      <path d="M252.5,468.5 C252.5,468.5 264.5,478.5 288.5,479.5 C312.5,480.5 324.5,468.5 324.5,468.5 L324.5,517.5 C324.5,517.5 312.5,528.5 288.5,528.5 C264.5,528.5 252.5,517.5 252.5,517.5 L252.5,468.5 z" fill="#474040"/>
      <path d="M252.5,468.5 C252.5,468.5 264.5,478.5 288.5,479.5 C312.5,480.5 324.5,468.5 324.5,468.5 L324.5,517.5 C324.5,517.5 312.5,528.5 288.5,528.5 C264.5,528.5 252.5,517.5 252.5,517.5 L252.5,468.5 z" fill-opacity="0" stroke="#000000" stroke-width="1"/>
    </g>
  </g>
</svg>
