<?xml version="1.0" encoding="utf-8"?>
<!-- Generator: Adobe Illustrator 20.0.0, SVG Export Plug-In . SVG Version: 6.00 Build 0)  -->
<svg version="1.1" xmlns="http://www.w3.org/2000/svg" xmlns:xlink="http://www.w3.org/1999/xlink" x="0px" y="0px" viewBox="0 0 600 360" style="enable-background:new 0 0 600 360;" xml:space="preserve">
<style type="text/css">
	.furniturewood{fill:#6A5E5E;}
	.person1suit{fill:#666060;stroke:#CCC0C0;stroke-miterlimit:10;}
	.person1flesh{fill:#E2CCCC;stroke:#B49999;stroke-miterlimit:10;}
	.person1hair{fill:#157FFF;}
	.person2suit{fill:#333066;stroke:#CCC0FF;stroke-miterlimit:10;}
	.person2flesh{fill:#C7B299;stroke:#603813;stroke-miterlimit:10;}
	.person2hair{fill:#2A0018;}
	.person3suit{fill:#9990AA;stroke:#CCC0FF;stroke-miterlimit:10;}
	.person3flesh{fill:#996633;stroke:#603813;stroke-miterlimit:10;}
	.person3hair{fill:#220011;}
	.socket{fill:none;stroke:#FF0000;stroke-width:0.5;stroke-miterlimit:10;stroke-dasharray:0.9803,0.9803;}
	.ball{opacity:0.9;fill:none;stroke:#33FF66;stroke-width:0.5;stroke-miterlimit:10;stroke-dasharray:1;enable-background:new    ;}
</style>
<g id="Interviewers">
	<g id="person-1-front" transform="translate(-100, -5)">
		<g id="person-1-front-body">
			<g id="person-1-front-pelvis-group">
				<g id="person-1-front-pelvis">
					<path id="person-1-front-pelvis-shape" class="person1suit" d="M169.5,124.5c0-6.1-4.9-11-11-11h-18c-6.1,0-11,4.9-11,11        l0,0c0,6.1,4.9,11,11,11h18C164.6,135.5,169.5,130.6,169.5,124.5L169.5,124.5z"/>
				</g>
				<g id="person-1-front-pelvis-socket-legs-right">
					<circle class="socket" cx="134.5" cy="124.5" r="5"/>
				</g>
				<g id="person-1-front-pelvis-socket-legs-left">
					<circle class="socket" cx="164.5" cy="124.5" r="5"/>
				</g>
			</g>
			<g id="person-1-front-arms">
				<!--gid = person-1-front-arms-right--><!--component-detected, new component = --><!--$newComponent/@x =
				--><!--$ball/@cx = 104--><!--$ball/@cy = 83--><!--$socketId =
					person-1-front-torso-socket-arms-right--><!--$socket/@cx = 130--><!--$socket/@cy = 83-->
				<g id="person-1-front-arms-right" transform="translate(26, 0) rotate(-80, 104, 83)">
					<!--gid = person-1-front-arms-right-lower-group--><!--component-detected, new component = --><!--$newComponent/@x = --><!--$ball/@cx = 65--><!--$ball/@cy = 83--><!--$socketId = person-1-front-arms-right-upper-socket--><!--$socket/@cx = 76--><!--$socket/@cy = 83-->
					<g id="person-1-front-arms-right-lower-group" transform="translate(11, 0) rotate(-60, 65, 83)">
						<!--gid = person-1-front-arms-right-hand-group--><!--component-detected, new component = --><!--$newComponent/@x = --><!--$ball/@cx = 21--><!--$ball/@cy = 83--><!--$socketId = person-1-front-arms-right-lower-socket--><!--$socket/@cx = 32--><!--$socket/@cy = 83-->
						<g id="person-1-front-arms-right-hand-group" transform="translate(11, 0) rotate(-20, 21, 83)">
							<g id="person-1-front-arms-right-hand">
								<path id="person-1-front-arms-right-hand-shape" class="person1flesh" d="M10.5,83c0,1.9,1.6,3.5,3.5,3.5h7           c1.9,0,3.5-1.6,3.5-3.5l0,0c0-1.9-1.6-3.5-3.5-3.5h-7C12.1,79.5,10.5,81.1,10.5,83L10.5,83z"/>
							</g>
							<circle id="person-1-front-arms-right-hand-ball" class="ball" cx="21" cy="83" r="4"/>
						</g>
						<g id="person-1-front-arms-right-lower">
							<path id="person-1-front-arms-right-lower-shape" class="person1suit" d="M28.5,83.1c0,1.9,1.4,3.4,3.1,3.4h33.8          c1.7,0,3.1-1.5,3.1-3.4v-0.3c0-1.9-1.4-3.4-3.1-3.4H31.6c-1.7,0-3.1,1.5-3.1,3.4V83.1z"/>
						</g>
						<g id="person-1-front-arms-right-lower-socket">
							<circle class="socket" cx="32" cy="83" r="4"/>
						</g>
						<circle id="person-1-front-arms-right-lower-ball" class="ball" cx="65" cy="83" r="4"/>
					</g>
					<g id="person-1-front-arms-right-upper">
						<path id="person-1-front-arms-right-upper-shape" class="person1suit" d="M72.5,83.1c0,1.9,1.2,3.4,2.7,3.4h29.6         c1.5,0,2.7-1.5,2.7-3.4v-0.3c0-1.9-1.2-3.4-2.7-3.4H75.2c-1.5,0-2.7,1.5-2.7,3.4V83.1z"/>
					</g>
					<circle id="person-1-front-arms-right-upper-ball" class="ball" cx="104" cy="83" r="4"/>
					<g id="person-1-front-arms-right-upper-socket">
						<circle class="socket" cx="76" cy="83" r="4"/>
					</g>
				</g>
				<!--gid = person-1-front-arms-left--><!--component-detected, new component = --><!--$newComponent/@x = --><!--$ball/@cx = 196--><!--$ball/@cy = 83--><!--$socketId = person-1-front-torso-socket-arms-left--><!--$socket/@cx = 170--><!--$socket/@cy = 83-->
				<g id="person-1-front-arms-left" transform="translate(-26, 0) rotate(50, 196, 83)">
					<!--gid = person-1-front-arms-left-lower-group--><!--component-detected, new component = --><!--$newComponent/@x = --><!--$ball/@cx = 235--><!--$ball/@cy = 83--><!--$socketId = person-1-front-arms-left-upper-socket--><!--$socket/@cx = 224--><!--$socket/@cy = 83-->
					<g id="person-1-front-arms-left-lower-group" transform="translate(-11, 0) rotate(60, 235, 83)">
						<!--gid = person-1-front-arms-left-hand-group--><!--component-detected, new component = --><!--$newComponent/@x = --><!--$ball/@cx = 279--><!--$ball/@cy = 83--><!--$socketId = person-1-front-arms-left-lower-socket--><!--$socket/@cx = 268--><!--$socket/@cy = 83-->
						<g id="person-1-front-arms-left-hand-group" transform="translate(-11, 0) rotate(-20, 279, 83)">
							<g id="person-1-front-arms-left-hand">
								<path id="person-1-front-arms-left-hand-shape" class="person1flesh" d="M288.5,83c0-1.9-1.6-3.5-3.5-3.5h-7           c-1.9,0-3.5,1.6-3.5,3.5l0,0c0,1.9,1.6,3.5,3.5,3.5h7C286.9,86.5,288.5,84.9,288.5,83L288.5,83z"/>
							</g>
							<circle id="person-1-front-arms-left-hand-ball" class="ball" cx="279" cy="83" r="4"/>
						</g>
						<g id="person-1-front-arms-left-lower">
							<path id="person-1-front-arms-left-lower-shape" class="person1suit" d="M270.5,82.9c0-1.9-0.4-3.4-2.1-3.4h-33.8          c-1.7,0-4.1,1.5-4.1,3.4v0.3c0,1.9,2.4,3.4,4.1,3.4h33.8c1.7,0,2.1-1.5,2.1-3.4V82.9z"/>
						</g>
						<g id="person-1-front-arms-left-lower-socket">
							<circle class="socket" cx="268" cy="83" r="4"/>
						</g>
						<circle id="person-1-front-arms-left-lower-ball" class="ball" cx="235" cy="83" r="4"/>
					</g>
					<g id="person-1-front-arms-left-upper">
						<path id="person-1-front-arms-left-upper-shape" class="person1suit" d="M226.5,82.9c0-1.9-0.2-3.4-1.7-3.4h-29.6         c-1.5,0-3.7,1.5-3.7,3.4v0.3c0,1.9,2.2,3.4,3.7,3.4h29.6c1.5,0,1.7-1.5,1.7-3.4V82.9z"/>
					</g>
					<circle id="person-1-front-arms-left-upper-ball" class="ball" cx="196" cy="83" r="4"/>
					<g id="person-1-front-arms-left-upper-socket">
						<circle class="socket" cx="224" cy="83" r="4"/>
					</g>
				</g>
			</g>
			<g id="person-1-front-headneck">
				<g id="person-1-front-neck-group" transform="translate(0, 11.5) rotate(0, 150, 68)">
					<g id="person-1-front-neck">
						<path id="person-1-front-neck-shape" class="person1flesh" d="M155,62c0-2.8-2.2-5-5-5l0,0c-2.8,0-5,2.2-5,5v6         c0,2.8,2.2,5,5,5l0,0c2.8,0,5-2.2,5-5V62z"/>
					</g>
					<g id="person-1-front-head-group" transform="translate(0, 11.5) rotate(0, 150, 50.5)">
						<g id="person-1-front-head">
							<path id="person-1-front-head-shape" class="person1flesh" d="M158.5,36.6c0-3.6-3-6.6-6.6-6.6h-3.8c-3.6,0-6.6,3-6.6,6.6          v8.8c0,3.6,3,6.6,6.6,6.6h3.8c3.6,0,6.6-3,6.6-6.6V36.6z"/>
							<g>
								<!-- hair and facial features -->
							</g>
						</g>
						<circle id="person-1-front-head-ball" class="ball" cx="150" cy="50.5" r="5"/>
					</g>
					<circle id="person-1-front-headneck-ball" class="ball" cx="150" cy="68" r="5"/>
					<g id="person-1-front-neck-socket">
						<circle class="socket" cx="150" cy="62" r="5"/>
					</g>
				</g>
			</g>
			<g id="person-1-front-torso-group">
				<g id="person-1-front-torso">
					<path id="person-1-front-torso-shape" class="person1suit" d="M170.5,86.8c1.7,0,3-1.8,3-3.6v-0.3c0-1.9-1.3-3.4-3-3.4        h-7.1h-3.2h-20.5h-3.2h-7.1c-1.7,0-3,1.5-3,3.4v0.3c0,1.9,1.3,3.6,3,3.6V92v9.5c0,6.6,4.6,12,10.2,12h20.5        c5.7,0,10.2-5.4,10.2-12V92V86.8z"/>
				</g>
				<g id="person-1-front-torso-socket-arms-right">
					<circle class="socket" cx="130" cy="83" r="4"/>
				</g>
				<g id="person-1-front-torso-socket-arms-left">
					<circle class="socket" cx="170" cy="83" r="4"/>
				</g>
				<g id="person-1-front-headneck-socket">
					<circle class="socket" cx="150" cy="79.5" r="5"/>
				</g>
			</g>
		</g>
	</g>
	<g id="person-2-front" transform="translate(105, -295)">
		<g id="person-2-front-body">
			<g id="person-2-front-pelvis-group">
				<g id="person-2-front-pelvis">
					<path id="person-2-front-pelvis-shape" class="person2suit" d="M169.5,424.5c0-6.1-4.9-11-11-11h-18c-6.1,0-11,4.9-11,11        l0,0c0,6.1,4.9,11,11,11h18C164.6,435.5,169.5,430.6,169.5,424.5L169.5,424.5z"/>
				</g>
				<g id="person-2-front-pelvis-socket-legs-right">
					<circle class="socket" cx="134.5" cy="424.5" r="5"/>
				</g>
				<g id="person-2-front-pelvis-socket-legs-left">
					<circle class="socket" cx="164.5" cy="424.5" r="5"/>
				</g>
			</g>
			<g id="person-2-front-arms">
				<g id="person-2-front-arms-right" transform="translate(26, 0)">
					<g id="person-2-front-arms-right-lower-group">
						<g id="person-2-front-arms-right-hand-group">
							<g id="person-2-front-arms-right-hand">
								<path id="person-2-front-arms-right-hand-shape" class="person2flesh" d="M10.5,383c0,1.9,1.6,3.5,3.5,3.5h7           c1.9,0,3.5-1.6,3.5-3.5l0,0c0-1.9-1.6-3.5-3.5-3.5h-7C12.1,379.5,10.5,381.1,10.5,383L10.5,383z"/>
							</g>
							<use xlink:href="#person-2-front-arms-right-hand" id="person-2-front-arms-left-hand" transform="translate(150, 0) scale(-1 1)     translate(-150, 0)"/>
							<ellipse id="person-2-front-arms-right-hand-ball" transform="matrix(0.7536 -0.6573 0.6573 0.7536 -246.5785 108.1697)" class="ball" cx="21" cy="383" rx="4" ry="4"/>
						</g>
						<g id="person-2-front-arms-right-lower">
							<path id="person-2-front-arms-right-lower-shape" class="person2suit" d="M28.5,383.1c0,1.9,1.4,3.4,3.1,3.4h33.8          c1.7,0,3.1-1.5,3.1-3.4v-0.3c0-1.9-1.4-3.4-3.1-3.4H31.6c-1.7,0-3.1,1.5-3.1,3.4V383.1z"/>
						</g>
						<use xlink:href="#person-2-front-arms-right-lower" id="person-2-front-arms-left-lower" transform="translate(150, 0) scale(-1 1)     translate(-150, 0)"/>
						<ellipse id="person-2-front-arms-right-lower-ball" transform="matrix(0.7536 -0.6573 0.6573 0.7536 -235.7375 137.0917)" class="ball" cx="65" cy="383" rx="4" ry="4"/>
						<g id="person-2-front-arms-right-lower-socket">
							<ellipse transform="matrix(0.7536 -0.6573 0.6573 0.7536 -243.868 115.3999)" class="socket" cx="32" cy="383" rx="4" ry="4"/>
						</g>
					</g>
					<g id="person-2-front-arms-right-upper">
						<path id="person-2-front-arms-right-upper-shape" class="person2suit" d="M72.5,383.1c0,1.9,1.2,3.4,2.7,3.4h29.6         c1.5,0,2.7-1.5,2.7-3.4v-0.3c0-1.9-1.2-3.4-2.7-3.4H75.2c-1.5,0-2.7,1.5-2.7,3.4V383.1z"/>
					</g>
					<use xlink:href="#person-2-front-arms-right-upper" id="person-2-front-arms-left-upper" transform="translate(150, 0) scale(-1 1)     translate(-150, 0)"/>
					<ellipse id="person-2-front-arms-right-upper-ball" transform="matrix(0.7536 -0.6573 0.6573 0.7536 -226.1284 162.7271)" class="ball" cx="104" cy="383" rx="4" ry="4"/>
					<g id="person-2-front-arms-right-upper-socket">
						<ellipse transform="matrix(0.7536 -0.6573 0.6573 0.7536 -233.0269 144.3218)" class="socket" cx="76" cy="383" rx="4" ry="4"/>
					</g>
				</g>
			</g>
			<g id="person-2-front-headneck">
				<g id="person-2-front-neck-group" transform="translate(0, 11.5)">
					<g id="person-2-front-neck">
						<path id="person-2-front-neck-shape" class="person2flesh" d="M155,362c0-2.8-2.2-5-5-5l0,0c-2.8,0-5,2.2-5,5v6         c0,2.8,2.2,5,5,5l0,0c2.8,0,5-2.2,5-5V362z"/>
					</g>
					<g id="person-2-front-head-group" transform="translate(0, 11.5)">
						<g id="person-2-front-head">
							<path id="person-2-front-head-shape" class="person2flesh" d="M158.5,336.6c0-3.6-3-6.6-6.6-6.6h-3.8c-3.6,0-6.6,3-6.6,6.6          v8.8c0,3.6,3,6.6,6.6,6.6h3.8c3.6,0,6.6-3,6.6-6.6V336.6z"/>
							<path class="liveryteam2A" d="M150,327.5c5.2,0,9.5,4.3,9.5,9.5l0,0c0,5.2-4.3-0.5-9.5-0.5s-9.5,5.7-9.5,0.5l0,0          C140.5,331.8,144.8,327.5,150,327.5z"/>
							<g>
								<path class="person2hair" d="M159.8,346c-0.1-0.5-0.4-0.5-0.8-0.5c-0.4,0-1.1-0.2-1.5,0.3l-0.2-0.2c-1.4,0-2.7,0.1-4.1-0.2           c-0.4-0.1-0.7-0.1-1.1-0.2c-0.3-0.1-0.6-0.2-0.9-0.4c-0.3-0.1-0.6-0.1-0.9-0.3c-0.2-0.1-0.3-0.2-0.5-0.2           c-0.2,0-0.3,0.1-0.5,0.2c-0.3,0.1-0.6,0.1-0.9,0.3c-0.3,0.1-0.6,0.3-0.9,0.4c-0.3,0.1-0.7,0.1-1.1,0.2           c-1.4,0.2-2.7,0.2-4.1,0.2l-0.2,0.2c-0.3-0.4-1-0.3-1.5-0.3c-0.3,0-0.7,0-0.8,0.5c-0.1,0.3,0,0.6,0,0.9c0,1,0,2,0.2,2.9           c0.2,1,0.5,1.7,1.2,2.3c0.5,0.4,1.2,0.7,1.7,1.2c0.2,0.2,0.4,0.4,0.7,0.6c0.4,0.3,0.8,0.6,1.2,0.9c0.6,0.4,1.2,0.7,1.7,1.1           c0.5,0.3,1,0.6,1.6,0.8c0.5,0.2,1.1,0.4,1.6,0.6c0.5-0.2,1-0.4,1.6-0.6c0.6-0.2,1.1-0.5,1.6-0.8c0.6-0.4,1.2-0.7,1.7-1.1           c0.4-0.3,0.8-0.6,1.2-0.9c0.3-0.2,0.4-0.4,0.7-0.6c0.5-0.5,1.1-0.8,1.7-1.2c0.7-0.5,1-1.2,1.2-2.3c0.2-0.9,0.2-1.9,0.2-2.9           C159.9,346.6,159.9,346.3,159.8,346z"/>
							</g>
							<path class="person1flesh" d="M149.5,348c-5,0,0-1,0-1C151.5,347,154.5,348,149.5,348z"/>
						</g>
						<circle id="person-2-front-head-ball" class="ball" cx="150" cy="350.5" r="5"/>
					</g>
					<circle id="person-2-front-headneck-ball" class="ball" cx="150" cy="368" r="5"/>
					<g id="person-2-front-neck-socket">
						<circle class="socket" cx="150" cy="362" r="5"/>
					</g>
				</g>
			</g>
			<g id="person-2-front-torso-group">
				<g id="person-2-front-torso">
					<path id="person-2-front-torso-shape" class="person2suit" d="M170.5,386.8c1.7,0,3-1.8,3-3.6v-0.3c0-1.9-1.3-3.4-3-3.4        h-7.1h-3.2h-20.5h-3.2h-7.1c-1.7,0-3,1.5-3,3.4v0.3c0,1.9,1.3,3.6,3,3.6v5.2v9.5c0,6.6,4.6,12,10.2,12h20.5        c5.7,0,10.2-5.4,10.2-12V392V386.8z"/>
				</g>
				<g id="person-2-front-torso-socket-arms-right">
					<ellipse transform="matrix(0.7536 -0.6573 0.6573 0.7536 -219.7221 179.8169)" class="socket" cx="130" cy="383" rx="4" ry="4"/>
				</g>
				<g id="person-2-front-torso-socket-arms-left">
					<ellipse transform="matrix(0.6573 -0.7536 0.7536 0.6573 -230.378 259.362)" class="socket" cx="170" cy="383" rx="4" ry="4"/>
				</g>
				<g id="person-2-front-headneck-socket">
					<circle class="socket" cx="150" cy="379.5" r="5"/>
				</g>
			</g>
		</g>
	</g>
	<g id="person-3-front" transform="translate(0, -5)">
		<g id="person-3-front-body">
			<g id="person-3-front-torso-group">
				<g id="person-3-front-torso">
					<path id="person-3-front-torso-shape" class="person3suit" d="M170.5,86.8c1.7,0,3-1.8,3-3.6v-0.3c0-1.9-1.3-3.4-3-3.4        h-7.1h-3.2h-20.5h-3.2h-7.1c-1.7,0-3,1.5-3,3.4v0.3c0,1.9,1.3,3.6,3,3.6V92v9.5c0,6.6,4.6,12,10.2,12h20.5        c5.7,0,10.2-5.4,10.2-12V92V86.8z"/>
				</g>
				<g id="person-3-front-torso-socket-arms-right">
					<circle class="socket" cx="130" cy="83" r="4"/>
				</g>
				<g id="person-3-front-torso-socket-arms-left">
					<circle class="socket" cx="170" cy="83" r="4"/>
				</g>
				<g id="person-3-front-headneck-socket">
					<circle class="socket" cx="150" cy="79.5" r="5"/>
				</g>
			</g>
			<g id="person-3-front-pelvis-group">
				<g id="person-3-front-pelvis">
					<path id="person-3-front-pelvis-shape" class="person3suit" d="M169.5,124.5c0-6.1-4.9-11-11-11h-18c-6.1,0-11,4.9-11,11        l0,0c0,6.1,4.9,11,11,11h18C164.6,135.5,169.5,130.6,169.5,124.5L169.5,124.5z"/>
				</g>
				<g id="person-3-front-pelvis-socket-legs-right">
					<circle class="socket" cx="134.5" cy="124.5" r="5"/>
				</g>
				<g id="person-3-front-pelvis-socket-legs-left">
					<circle class="socket" cx="164.5" cy="124.5" r="5"/>
				</g>
			</g>
			<g id="person-3-front-arms">
				<!--gid = person-3-front-arms-right--><!--component-detected, new component = --><!--$newComponent/@x =
				--><!--$ball/@cx = 104--><!--$ball/@cy = 83--><!--$socketId =
					person-3-front-torso-socket-arms-right--><!--$socket/@cx = 130--><!--$socket/@cy = 83-->
				<g id="person-3-front-arms-right" transform="translate(26, 0) rotate(-80, 104, 83)">
					<!--gid = person-3-front-arms-right-lower-group--><!--component-detected, new component = --><!--$newComponent/@x = --><!--$ball/@cx = 65--><!--$ball/@cy = 83--><!--$socketId = person-3-front-arms-right-upper-socket--><!--$socket/@cx = 76--><!--$socket/@cy = 83-->
					<g id="person-3-front-arms-right-lower-group" transform="translate(11, 0) rotate(-70, 65, 83)">
						<!--gid = person-3-front-arms-right-hand-group--><!--component-detected, new component = --><!--$newComponent/@x = --><!--$ball/@cx = 21--><!--$ball/@cy = 83--><!--$socketId = person-3-front-arms-right-lower-socket--><!--$socket/@cx = 32--><!--$socket/@cy = 83-->
						<g id="person-3-front-arms-right-hand-group" transform="translate(11, 0) rotate(5, 21, 83)">
							<g id="person-3-front-arms-right-hand">
								<path id="person-3-front-arms-right-hand-shape" class="person3flesh" d="M10.5,83c0,1.9,1.6,3.5,3.5,3.5h7           c1.9,0,3.5-1.6,3.5-3.5l0,0c0-1.9-1.6-3.5-3.5-3.5h-7C12.1,79.5,10.5,81.1,10.5,83L10.5,83z"/>
							</g>
							<circle id="person-3-front-arms-right-hand-ball" class="ball" cx="21" cy="83" r="4"/>
						</g>
						<g id="person-3-front-arms-right-lower">
							<path id="person-3-front-arms-right-lower-shape" class="person3suit" d="M28.5,83.1c0,1.9,1.4,3.4,3.1,3.4h33.8          c1.7,0,3.1-1.5,3.1-3.4v-0.3c0-1.9-1.4-3.4-3.1-3.4H31.6c-1.7,0-3.1,1.5-3.1,3.4V83.1z"/>
						</g>
						<g id="person-3-front-arms-right-lower-socket">
							<circle class="socket" cx="32" cy="83" r="4"/>
						</g>
						<circle id="person-3-front-arms-right-lower-ball" class="ball" cx="65" cy="83" r="4"/>
					</g>
					<g id="person-3-front-arms-right-upper">
						<path id="person-3-front-arms-right-upper-shape" class="person3suit" d="M72.5,83.1c0,1.9,1.2,3.4,2.7,3.4h29.6         c1.5,0,2.7-1.5,2.7-3.4v-0.3c0-1.9-1.2-3.4-2.7-3.4H75.2c-1.5,0-2.7,1.5-2.7,3.4V83.1z"/>
					</g>
					<circle id="person-3-front-arms-right-upper-ball" class="ball" cx="104" cy="83" r="4"/>
					<g id="person-3-front-arms-right-upper-socket">
						<circle class="socket" cx="76" cy="83" r="4"/>
					</g>
				</g>
				<!--gid = person-3-front-arms-left--><!--component-detected, new component = --><!--$newComponent/@x = --><!--$ball/@cx = 196--><!--$ball/@cy = 83--><!--$socketId = person-3-front-torso-socket-arms-left--><!--$socket/@cx = 170--><!--$socket/@cy = 83-->
				<g id="person-3-front-arms-left" transform="translate(-26, 0) rotate(50, 196, 83)">
					<!--gid = person-3-front-arms-left-lower-group--><!--component-detected, new component = --><!--$newComponent/@x = --><!--$ball/@cx = 235--><!--$ball/@cy = 83--><!--$socketId = person-3-front-arms-left-upper-socket--><!--$socket/@cx = 224--><!--$socket/@cy = 83-->
					<g id="person-3-front-arms-left-lower-group" transform="translate(-11, 0) rotate(130, 235, 83)">
						<!--gid = person-3-front-arms-left-hand-group--><!--component-detected, new component = --><!--$newComponent/@x = --><!--$ball/@cx = 279--><!--$ball/@cy = 83--><!--$socketId = person-3-front-arms-left-lower-socket--><!--$socket/@cx = 268--><!--$socket/@cy = 83-->
						<g id="person-3-front-arms-left-hand-group" transform="translate(-11, 0) rotate(10, 279, 83)">
							<g id="person-3-front-arms-left-hand">
								<path id="person-3-front-arms-left-hand-shape" class="person3flesh" d="M288.5,83c0-1.9-1.6-3.5-3.5-3.5h-7           c-1.9,0-3.5,1.6-3.5,3.5l0,0c0,1.9,1.6,3.5,3.5,3.5h7C286.9,86.5,288.5,84.9,288.5,83L288.5,83z"/>
							</g>
							<circle id="person-3-front-arms-left-hand-ball" class="ball" cx="279" cy="83" r="4"/>
						</g>
						<g id="person-3-front-arms-left-lower">
							<path id="person-3-front-arms-left-lower-shape" class="person3suit" d="M270.5,82.9c0-1.9-0.4-3.4-2.1-3.4h-33.8          c-1.7,0-4.1,1.5-4.1,3.4v0.3c0,1.9,2.4,3.4,4.1,3.4h33.8c1.7,0,2.1-1.5,2.1-3.4V82.9z"/>
						</g>
						<g id="person-3-front-arms-left-lower-socket">
							<circle class="socket" cx="268" cy="83" r="4"/>
						</g>
						<circle id="person-3-front-arms-left-lower-ball" class="ball" cx="235" cy="83" r="4"/>
					</g>
					<g id="person-3-front-arms-left-upper">
						<path id="person-3-front-arms-left-upper-shape" class="person3suit" d="M226.5,82.9c0-1.9-0.2-3.4-1.7-3.4h-29.6         c-1.5,0-3.7,1.5-3.7,3.4v0.3c0,1.9,2.2,3.4,3.7,3.4h29.6c1.5,0,1.7-1.5,1.7-3.4V82.9z"/>
					</g>
					<circle id="person-3-front-arms-left-upper-ball" class="ball" cx="196" cy="83" r="4"/>
					<g id="person-3-front-arms-left-upper-socket">
						<circle class="socket" cx="224" cy="83" r="4"/>
					</g>
				</g>
			</g>
			<g id="person-3-front-headneck">
				<!--gid = person-3-front-neck-group--><!--component-detected, new component = --><!--$newComponent/@x = --><!--$ball/@cx = 150--><!--$ball/@cy = 68--><!--$socketId = person-3-front-headneck-socket--><!--$socket/@cx = 150--><!--$socket/@cy = 79.5--><g id="person-3-front-neck-group" transform="translate(0, 11.5) rotate(0, 150, 68)">
					<g id="person-3-front-neck">
						<path id="person-3-front-neck-shape" class="person3flesh" d="M155,62c0-2.8-2.2-5-5-5l0,0c-2.8,0-5,2.2-5,5v6         c0,2.8,2.2,5,5,5l0,0c2.8,0,5-2.2,5-5V62z"/>
					</g>
					<!--gid = person-3-front-head-group--><!--component-detected, new component = --><!--$newComponent/@x = --><!--$ball/@cx = 150--><!--$ball/@cy = 50.5--><!--$socketId = person-3-front-neck-socket--><!--$socket/@cx = 150--><!--$socket/@cy = 62--><g id="person-3-front-head-group" transform="translate(0, 11.5) rotate(0, 150, 50.5)">
						<g id="person-3-front-head">
							<path id="person-3-front-head-shape" class="person3flesh" d="M158.5,36.6c0-3.6-3-6.6-6.6-6.6h-3.8c-3.6,0-6.6,3-6.6,6.6          v8.8c0,3.6,3,6.6,6.6,6.6h3.8c3.6,0,6.6-3,6.6-6.6V36.6z"/>
							<g>
								<!-- hair and facial features -->
							</g>
						</g>
						<circle id="person-3-front-head-ball" class="ball" cx="150" cy="50.5" r="5"/>
					</g>
					<circle id="person-3-front-headneck-ball" class="ball" cx="150" cy="68" r="5"/>
					<g id="person-3-front-neck-socket">
						<circle class="socket" cx="150" cy="62" r="5"/>
					</g>
				</g>
			</g>
		</g>
	</g>
</g>
<g id="Furniture">
	<path id="tabletop" class="furniturewood" d="M20.5,125.6h300.9l20.5,88.9H0L20.5,125.6z"/>
</g>
</svg>
