<?xml version="1.0" encoding="utf-8"?>
<!-- Generator: Adobe Illustrator 20.0.0, SVG Export Plug-In . SVG Version: 6.00 Build 0)  -->
<svg version="1.1" xmlns="http://www.w3.org/2000/svg" xmlns:xlink="http://www.w3.org/1999/xlink" x="0px" y="0px" viewBox="0 0 600 360" style="enable-background:new 0 0 600 360;" xml:space="preserve">
<style type="text/css">
	.furniturewood{fill:#6A5E5E;}
	.person1suit{fill:#666060;stroke:#CCC0C0;stroke-miterlimit:10;}
	.person1flesh{fill:#E2CCCC;stroke:#B49999;stroke-miterlimit:10;}
	.person1hair{fill:#157FFF;}
	.person2suit{fill:#333066;stroke:#CCC0FF;stroke-miterlimit:10;}
	.person2flesh{fill:#C7B299;stroke:#603813;stroke-miterlimit:10;}
	.person2hair{fill:#2A0018;}
	.person3suit{fill:#9990AA;stroke:#CCC0FF;stroke-miterlimit:10;}
	.person3flesh{fill:#996633;stroke:#603813;stroke-miterlimit:10;}
	.person3hair{fill:#220011;}
	.socket{fill:none;stroke:#FF0000;stroke-width:0.5;stroke-miterlimit:10;stroke-dasharray:0.9803,0.9803;}
	.ball{opacity:0.9;fill:none;stroke:#33FF66;stroke-width:0.5;stroke-miterlimit:10;stroke-dasharray:1;enable-background:new    ;}
</style>
<g id="Interviewers">
	<g id="person-1-front" transform="translate(-100, -5)">
		<g id="person-1-front-body">
			<g id="person-1-front-pelvis-group">
				<g id="person-1-front-pelvis">
					<path id="person-1-front-pelvis-shape" class="person1suit" d="M169.5,124.5c0-6.1-4.9-11-11-11h-18c-6.1,0-11,4.9-11,11        l0,0c0,6.1,4.9,11,11,11h18C164.6,135.5,169.5,130.6,169.5,124.5L169.5,124.5z"/>
				</g>
				<g id="person-1-front-pelvis-socket-legs-right">
					<circle class="socket" cx="134.5" cy="124.5" r="5"/>
				</g>
				<g id="person-1-front-pelvis-socket-legs-left">
					<circle class="socket" cx="164.5" cy="124.5" r="5"/>
				</g>
			</g>
			<g id="person-1-front-arms">
				<!--gid = person-1-front-arms-right--><!--component-detected, new component = --><!--$newComponent/@x =
				--><!--$ball/@cx = 104--><!--$ball/@cy = 83--><!--$socketId =
					person-1-front-torso-socket-arms-right--><!--$socket/@cx = 130--><!--$socket/@cy = 83-->
				<g id="person-1-front-arms-right" transform="translate(26, 0) rotate(-80, 104, 83)">
					<!--gid = person-1-front-arms-right-lower-group--><!--component-detected, new component = --><!--$newComponent/@x = --><!--$ball/@cx = 65--><!--$ball/@cy = 83--><!--$socketId = person-1-front-arms-right-upper-socket--><!--$socket/@cx = 76--><!--$socket/@cy = 83-->
					<g id="person-1-front-arms-right-lower-group" transform="translate(11, 0) rotate(-60, 65, 83)">
						<!--gid = person-1-front-arms-right-hand-group--><!--component-detected, new component = --><!--$newComponent/@x = --><!--$ball/@cx = 21--><!--$ball/@cy = 83--><!--$socketId = person-1-front-arms-right-lower-socket--><!--$socket/@cx = 32--><!--$socket/@cy = 83-->
						<g id="person-1-front-arms-right-hand-group" transform="translate(11, 0) rotate(-20, 21, 83)">
							<g id="person-1-front-arms-right-hand">
								<path id="person-1-front-arms-right-hand-shape" class="person1flesh" d="M10.5,83c0,1.9,1.6,3.5,3.5,3.5h7           c1.9,0,3.5-1.6,3.5-3.5l0,0c0-1.9-1.6-3.5-3.5-3.5h-7C12.1,79.5,10.5,81.1,10.5,83L10.5,83z"/>
							</g>
							<circle id="person-1-front-arms-right-hand-ball" class="ball" cx="21" cy="83" r="4"/>
						</g>
						<g id="person-1-front-arms-right-lower">
							<path id="person-1-front-arms-right-lower-shape" class="person1suit" d="M28.5,83.1c0,1.9,1.4,3.4,3.1,3.4h33.8          c1.7,0,3.1-1.5,3.1-3.4v-0.3c0-1.9-1.4-3.4-3.1-3.4H31.6c-1.7,0-3.1,1.5-3.1,3.4V83.1z"/>
						</g>
						<g id="person-1-front-arms-right-lower-socket">
							<circle class="socket" cx="32" cy="83" r="4"/>
						</g>
						<circle id="person-1-front-arms-right-lower-ball" class="ball" cx="65" cy="83" r="4"/>
					</g>
					<g id="person-1-front-arms-right-upper">
						<path id="person-1-front-arms-right-upper-shape" class="person1suit" d="M72.5,83.1c0,1.9,1.2,3.4,2.7,3.4h29.6         c1.5,0,2.7-1.5,2.7-3.4v-0.3c0-1.9-1.2-3.4-2.7-3.4H75.2c-1.5,0-2.7,1.5-2.7,3.4V83.1z"/>
					</g>
					<circle id="person-1-front-arms-right-upper-ball" class="ball" cx="104" cy="83" r="4"/>
					<g id="person-1-front-arms-right-upper-socket">
						<circle class="socket" cx="76" cy="83" r="4"/>
					</g>
				</g>
				<!--gid = person-1-front-arms-left--><!--component-detected, new component = --><!--$newComponent/@x = --><!--$ball/@cx = 196--><!--$ball/@cy = 83--><!--$socketId = person-1-front-torso-socket-arms-left--><!--$socket/@cx = 170--><!--$socket/@cy = 83-->
				<g id="person-1-front-arms-left" transform="translate(-26, 0) rotate(50, 196, 83)">
					<!--gid = person-1-front-arms-left-lower-group--><!--component-detected, new component = --><!--$newComponent/@x = --><!--$ball/@cx = 235--><!--$ball/@cy = 83--><!--$socketId = person-1-front-arms-left-upper-socket--><!--$socket/@cx = 224--><!--$socket/@cy = 83-->
					<g id="person-1-front-arms-left-lower-group" transform="translate(-11, 0) rotate(60, 235, 83)">
						<!--gid = person-1-front-arms-left-hand-group--><!--component-detected, new component = --><!--$newComponent/@x = --><!--$ball/@cx = 279--><!--$ball/@cy = 83--><!--$socketId = person-1-front-arms-left-lower-socket--><!--$socket/@cx = 268--><!--$socket/@cy = 83-->
						<g id="person-1-front-arms-left-hand-group" transform="translate(-11, 0) rotate(-20, 279, 83)">
							<g id="person-1-front-arms-left-hand">
								<path id="person-1-front-arms-left-hand-shape" class="person1flesh" d="M288.5,83c0-1.9-1.6-3.5-3.5-3.5h-7           c-1.9,0-3.5,1.6-3.5,3.5l0,0c0,1.9,1.6,3.5,3.5,3.5h7C286.9,86.5,288.5,84.9,288.5,83L288.5,83z"/>
							</g>
							<circle id="person-1-front-arms-left-hand-ball" class="ball" cx="279" cy="83" r="4"/>
						</g>
						<g id="person-1-front-arms-left-lower">
							<path id="person-1-front-arms-left-lower-shape" class="person1suit" d="M270.5,82.9c0-1.9-0.4-3.4-2.1-3.4h-33.8          c-1.7,0-4.1,1.5-4.1,3.4v0.3c0,1.9,2.4,3.4,4.1,3.4h33.8c1.7,0,2.1-1.5,2.1-3.4V82.9z"/>
						</g>
						<g id="person-1-front-arms-left-lower-socket">
							<circle class="socket" cx="268" cy="83" r="4"/>
						</g>
						<circle id="person-1-front-arms-left-lower-ball" class="ball" cx="235" cy="83" r="4"/>
					</g>
					<g id="person-1-front-arms-left-upper">
						<path id="person-1-front-arms-left-upper-shape" class="person1suit" d="M226.5,82.9c0-1.9-0.2-3.4-1.7-3.4h-29.6         c-1.5,0-3.7,1.5-3.7,3.4v0.3c0,1.9,2.2,3.4,3.7,3.4h29.6c1.5,0,1.7-1.5,1.7-3.4V82.9z"/>
					</g>
					<circle id="person-1-front-arms-left-upper-ball" class="ball" cx="196" cy="83" r="4"/>
					<g id="person-1-front-arms-left-upper-socket">
						<circle class="socket" cx="224" cy="83" r="4"/>
					</g>
				</g>
			</g>
			<g id="person-1-front-headneck">
				<g id="person-1-front-neck-group" transform="translate(0, 11.5) rotate(0, 150, 68)">
					<g id="person-1-front-neck">
						<path id="person-1-front-neck-shape" class="person1flesh" d="M155,62c0-2.8-2.2-5-5-5l0,0c-2.8,0-5,2.2-5,5v6         c0,2.8,2.2,5,5,5l0,0c2.8,0,5-2.2,5-5V62z"/>
					</g>
					<g id="person-1-front-head-group" transform="translate(0, 11.5) rotate(0, 150, 50.5)">
						<g id="person-1-front-head">
							<path id="person-1-front-head-shape" class="person1flesh" d="M158.5,36.6c0-3.6-3-6.6-6.6-6.6h-3.8c-3.6,0-6.6,3-6.6,6.6          v8.8c0,3.6,3,6.6,6.6,6.6h3.8c3.6,0,6.6-3,6.6-6.6V36.6z"/>
							<g>
								<!-- hair and facial features -->
							</g>
						</g>
						<circle id="person-1-front-head-ball" class="ball" cx="150" cy="50.5" r="5"/>
					</g>
					<circle id="person-1-front-headneck-ball" class="ball" cx="150" cy="68" r="5"/>
					<g id="person-1-front-neck-socket">
						<circle class="socket" cx="150" cy="62" r="5"/>
					</g>
				</g>
			</g>
			<g id="person-1-front-torso-group">
				<g id="person-1-front-torso">
					<path id="person-1-front-torso-shape" class="person1suit" d="M170.5,86.8c1.7,0,3-1.8,3-3.6v-0.3c0-1.9-1.3-3.4-3-3.4        h-7.1h-3.2h-20.5h-3.2h-7.1c-1.7,0-3,1.5-3,3.4v0.3c0,1.9,1.3,3.6,3,3.6V92v9.5c0,6.6,4.6,12,10.2,12h20.5        c5.7,0,10.2-5.4,10.2-12V92V86.8z"/>
				</g>
				<g id="person-1-front-torso-socket-arms-right">
					<circle class="socket" cx="130" cy="83" r="4"/>
				</g>
				<g id="person-1-front-torso-socket-arms-left">
					<circle class="socket" cx="170" cy="83" r="4"/>
				</g>
				<g id="person-1-front-headneck-socket">
					<circle class="socket" cx="150" cy="79.5" r="5"/>
				</g>
			</g>
		</g>
	</g>
	<g id="person-2-front" transform="translate(105, -295)">
		<g id="person-2-front-body">
			<g id="person-2-front-pelvis-group">
				<g id="person-2-front-pelvis">
					<path id="person-2-front-pelvis-shape" class="person2suit" d="M169.5,424.5c0-6.1-4.9-11-11-11h-18c-6.1,0-11,4.9-11,11        l0,0c0,6.1,4.9,11,11,11h18C164.6,435.5,169.5,430.6,169.5,424.5L169.5,424.5z"/>
				</g>
				<g id="person-2-front-pelvis-socket-legs-right">
					<circle class="socket" cx="134.5" cy="424.5" r="5"/>
				</g>
				<g id="person-2-front-pelvis-socket-legs-left">
					<circle class="socket" cx="164.5" cy="424.5" r="5"/>
				</g>
			</g>
			<g id="person-2-front-arms">
				<g id="person-2-front-arms-right" transform="translate(26, 0)">
					<g id="person-2-front-arms-right-lower-group" transform="translate(11, 0)">
						<g id="person-2-front-arms-right-hand-group" transform="translate(11, 0)">
							<g id="person-2-front-arms-right-hand">
								<path id="person-2-front-arms-right-hand-shape" class="person2flesh" d="M10.5,383c0,1.9,1.6,3.5,3.5,3.5h7           c1.9,0,3.5-1.6,3.5-3.5l0,0c0-1.9-1.6-3.5-3.5-3.5h-7C12.1,379.5,10.5,381.1,10.5,383L10.5,383z"/>
							</g>
							<use xlink:href="#person-2-front-arms-right-hand" id="person-2-front-arms-left-hand" transform="translate(102, 0)
								scale(-1 1)     translate(-102, 0)"/>
							<ellipse id="person-2-front-arms-right-hand-ball" transform="matrix(0.7536 -0.6573 0.6573 0.7536 -246.5785 108.1697)" class="ball" cx="21" cy="383" rx="4" ry="4"/>
						</g>
						<g id="person-2-front-arms-right-lower">
							<path id="person-2-front-arms-right-lower-shape" class="person2suit" d="M28.5,383.1c0,1.9,1.4,3.4,3.1,3.4h33.8          c1.7,0,3.1-1.5,3.1-3.4v-0.3c0-1.9-1.4-3.4-3.1-3.4H31.6c-1.7,0-3.1,1.5-3.1,3.4V383.1z"/>
						</g>
						<use xlink:href="#person-2-front-arms-right-lower" id="person-2-front-arms-left-lower" transform="translate(113,
							0) scale(-1 1)     translate(-113, 0)"/>
						<ellipse id="person-2-front-arms-right-lower-ball" transform="matrix(0.7536 -0.6573 0.6573 0.7536 -235.7375 137.0917)" class="ball" cx="65" cy="383" rx="4" ry="4"/>
						<g id="person-2-front-arms-right-lower-socket">
							<ellipse transform="matrix(0.7536 -0.6573 0.6573 0.7536 -243.868 115.3999)" class="socket" cx="32" cy="383" rx="4" ry="4"/>
						</g>
					</g>
					<g id="person-2-front-arms-right-upper">
						<path id="person-2-front-arms-right-upper-shape" class="person2suit" d="M72.5,383.1c0,1.9,1.2,3.4,2.7,3.4h29.6         c1.5,0,2.7-1.5,2.7-3.4v-0.3c0-1.9-1.2-3.4-2.7-3.4H75.2c-1.5,0-2.7,1.5-2.7,3.4V383.1z"/>
					</g>
					<use xlink:href="#person-2-front-arms-right-upper" id="person-2-front-arms-left-upper" transform="translate(124, 0)
						scale(-1 1)     translate(-124, 0)"/>
					<ellipse id="person-2-front-arms-right-upper-ball" transform="matrix(0.7536 -0.6573 0.6573 0.7536 -226.1284 162.7271)" class="ball" cx="104" cy="383" rx="4" ry="4"/>
					<g id="person-2-front-arms-right-upper-socket">
						<ellipse transform="matrix(0.7536 -0.6573 0.6573 0.7536 -233.0269 144.3218)" class="socket" cx="76" cy="383" rx="4" ry="4"/>
					</g>
				</g>
			</g>
			<g id="person-2-front-headneck">
				<g id="person-2-front-neck-group" transform="translate(0, 11.5)">
					<g id="person-2-front-neck">
						<path id="person-2-front-neck-shape" class="person2flesh" d="M155,362c0-2.8-2.2-5-5-5l0,0c-2.8,0-5,2.2-5,5v6         c0,2.8,2.2,5,5,5l0,0c2.8,0,5-2.2,5-5V362z"/>
					</g>
					<g id="person-2-front-head-group" transform="translate(0, 11.5)">
						<g id="person-2-front-head">
							<path id="person-2-front-head-shape" class="person2flesh" d="M158.5,336.6c0-3.6-3-6.6-6.6-6.6h-3.8c-3.6,0-6.6,3-6.6,6.6          v8.8c0,3.6,3,6.6,6.6,6.6h3.8c3.6,0,6.6-3,6.6-6.6V336.6z"/>
							<g>
								<!-- hair and facial features -->
							</g>
						</g>
						<circle id="person-2-front-head-ball" class="ball" cx="150" cy="350.5" r="5"/>
					</g>
					<circle id="person-2-front-headneck-ball" class="ball" cx="150" cy="368" r="5"/>
					<g id="person-2-front-neck-socket">
						<circle class="socket" cx="150" cy="362" r="5"/>
					</g>
				</g>
			</g>
			<g id="person-2-front-torso-group">
				<g id="person-2-front-torso">
					<path id="person-2-front-torso-shape" class="person2suit" d="M170.5,386.8c1.7,0,3-1.8,3-3.6v-0.3c0-1.9-1.3-3.4-3-3.4        h-7.1h-3.2h-20.5h-3.2h-7.1c-1.7,0-3,1.5-3,3.4v0.3c0,1.9,1.3,3.6,3,3.6v5.2v9.5c0,6.6,4.6,12,10.2,12h20.5        c5.7,0,10.2-5.4,10.2-12V392V386.8z"/>
				</g>
				<g id="person-2-front-torso-socket-arms-right">
					<ellipse transform="matrix(0.7536 -0.6573 0.6573 0.7536 -219.7221 179.8169)" class="socket" cx="130" cy="383" rx="4" ry="4"/>
				</g>
				<g id="person-2-front-torso-socket-arms-left">
					<ellipse transform="matrix(0.6573 -0.7536 0.7536 0.6573 -230.378 259.362)" class="socket" cx="170" cy="383" rx="4" ry="4"/>
				</g>
				<g id="person-2-front-headneck-socket">
					<circle class="socket" cx="150" cy="379.5" r="5"/>
				</g>
			</g>
		</g>
	</g>
	<g id="person-3-front" transform="translate(0, -5)">
		<g id="person-3-front-body">
			<g id="person-3-front-torso-group">
				<g id="person-3-front-torso">
					<path id="person-3-front-torso-shape" class="person3suit" d="M170.5,86.8c1.7,0,3-1.8,3-3.6v-0.3c0-1.9-1.3-3.4-3-3.4        h-7.1h-3.2h-20.5h-3.2h-7.1c-1.7,0-3,1.5-3,3.4v0.3c0,1.9,1.3,3.6,3,3.6V92v9.5c0,6.6,4.6,12,10.2,12h20.5        c5.7,0,10.2-5.4,10.2-12V92V86.8z"/>
				</g>
				<g id="person-3-front-torso-socket-arms-right">
					<circle class="socket" cx="130" cy="83" r="4"/>
				</g>
				<g id="person-3-front-torso-socket-arms-left">
					<circle class="socket" cx="170" cy="83" r="4"/>
				</g>
				<g id="person-3-front-headneck-socket">
					<circle class="socket" cx="150" cy="79.5" r="5"/>
				</g>
			</g>
			<g id="person-3-front-pelvis-group">
				<g id="person-3-front-pelvis">
					<path id="person-3-front-pelvis-shape" class="person3suit" d="M169.5,124.5c0-6.1-4.9-11-11-11h-18c-6.1,0-11,4.9-11,11        l0,0c0,6.1,4.9,11,11,11h18C164.6,135.5,169.5,130.6,169.5,124.5L169.5,124.5z"/>
				</g>
				<g id="person-3-front-pelvis-socket-legs-right">
					<circle class="socket" cx="134.5" cy="124.5" r="5"/>
				</g>
				<g id="person-3-front-pelvis-socket-legs-left">
					<circle class="socket" cx="164.5" cy="124.5" r="5"/>
				</g>
			</g>
			<g id="person-3-front-arms">
				<!--gid = person-3-front-arms-right--><!--component-detected, new component = --><!--$newComponent/@x =
				--><!--$ball/@cx = 104--><!--$ball/@cy = 83--><!--$socketId =
					person-3-front-torso-socket-arms-right--><!--$socket/@cx = 130--><!--$socket/@cy = 83-->
				<g id="person-3-front-arms-right" transform="translate(26, 0) rotate(-80, 104, 83)">
					<!--gid = person-3-front-arms-right-lower-group--><!--component-detected, new component = --><!--$newComponent/@x = --><!--$ball/@cx = 65--><!--$ball/@cy = 83--><!--$socketId = person-3-front-arms-right-upper-socket--><!--$socket/@cx = 76--><!--$socket/@cy = 83-->
					<g id="person-3-front-arms-right-lower-group" transform="translate(11, 0) rotate(-70, 65, 83)">
						<!--gid = person-3-front-arms-right-hand-group--><!--component-detected, new component = --><!--$newComponent/@x = --><!--$ball/@cx = 21--><!--$ball/@cy = 83--><!--$socketId = person-3-front-arms-right-lower-socket--><!--$socket/@cx = 32--><!--$socket/@cy = 83-->
						<g id="person-3-front-arms-right-hand-group" transform="translate(11, 0) rotate(5, 21, 83)">
							<g id="person-3-front-arms-right-hand">
								<path id="person-3-front-arms-right-hand-shape" class="person3flesh" d="M10.5,83c0,1.9,1.6,3.5,3.5,3.5h7           c1.9,0,3.5-1.6,3.5-3.5l0,0c0-1.9-1.6-3.5-3.5-3.5h-7C12.1,79.5,10.5,81.1,10.5,83L10.5,83z"/>
							</g>
							<circle id="person-3-front-arms-right-hand-ball" class="ball" cx="21" cy="83" r="4"/>
						</g>
						<g id="person-3-front-arms-right-lower">
							<path id="person-3-front-arms-right-lower-shape" class="person3suit" d="M28.5,83.1c0,1.9,1.4,3.4,3.1,3.4h33.8          c1.7,0,3.1-1.5,3.1-3.4v-0.3c0-1.9-1.4-3.4-3.1-3.4H31.6c-1.7,0-3.1,1.5-3.1,3.4V83.1z"/>
						</g>
						<g id="person-3-front-arms-right-lower-socket">
							<circle class="socket" cx="32" cy="83" r="4"/>
						</g>
						<circle id="person-3-front-arms-right-lower-ball" class="ball" cx="65" cy="83" r="4"/>
					</g>
					<g id="person-3-front-arms-right-upper">
						<path id="person-3-front-arms-right-upper-shape" class="person3suit" d="M72.5,83.1c0,1.9,1.2,3.4,2.7,3.4h29.6         c1.5,0,2.7-1.5,2.7-3.4v-0.3c0-1.9-1.2-3.4-2.7-3.4H75.2c-1.5,0-2.7,1.5-2.7,3.4V83.1z"/>
					</g>
					<circle id="person-3-front-arms-right-upper-ball" class="ball" cx="104" cy="83" r="4"/>
					<g id="person-3-front-arms-right-upper-socket">
						<circle class="socket" cx="76" cy="83" r="4"/>
					</g>
				</g>
				<!--gid = person-3-front-arms-left--><!--component-detected, new component = --><!--$newComponent/@x = --><!--$ball/@cx = 196--><!--$ball/@cy = 83--><!--$socketId = person-3-front-torso-socket-arms-left--><!--$socket/@cx = 170--><!--$socket/@cy = 83-->
				<g id="person-3-front-arms-left" transform="translate(-26, 0) rotate(50, 196, 83)">
					<!--gid = person-3-front-arms-left-lower-group--><!--component-detected, new component = --><!--$newComponent/@x = --><!--$ball/@cx = 235--><!--$ball/@cy = 83--><!--$socketId = person-3-front-arms-left-upper-socket--><!--$socket/@cx = 224--><!--$socket/@cy = 83-->
					<g id="person-3-front-arms-left-lower-group" transform="translate(-11, 0) rotate(130, 235, 83)">
						<!--gid = person-3-front-arms-left-hand-group--><!--component-detected, new component = --><!--$newComponent/@x = --><!--$ball/@cx = 279--><!--$ball/@cy = 83--><!--$socketId = person-3-front-arms-left-lower-socket--><!--$socket/@cx = 268--><!--$socket/@cy = 83-->
						<g id="person-3-front-arms-left-hand-group" transform="translate(-11, 0) rotate(10, 279, 83)">
							<g id="person-3-front-arms-left-hand">
								<path id="person-3-front-arms-left-hand-shape" class="person3flesh" d="M288.5,83c0-1.9-1.6-3.5-3.5-3.5h-7           c-1.9,0-3.5,1.6-3.5,3.5l0,0c0,1.9,1.6,3.5,3.5,3.5h7C286.9,86.5,288.5,84.9,288.5,83L288.5,83z"/>
							</g>
							<circle id="person-3-front-arms-left-hand-ball" class="ball" cx="279" cy="83" r="4"/>
						</g>
						<g id="person-3-front-arms-left-lower">
							<path id="person-3-front-arms-left-lower-shape" class="person3suit" d="M270.5,82.9c0-1.9-0.4-3.4-2.1-3.4h-33.8          c-1.7,0-4.1,1.5-4.1,3.4v0.3c0,1.9,2.4,3.4,4.1,3.4h33.8c1.7,0,2.1-1.5,2.1-3.4V82.9z"/>
						</g>
						<g id="person-3-front-arms-left-lower-socket">
							<circle class="socket" cx="268" cy="83" r="4"/>
						</g>
						<circle id="person-3-front-arms-left-lower-ball" class="ball" cx="235" cy="83" r="4"/>
					</g>
					<g id="person-3-front-arms-left-upper">
						<path id="person-3-front-arms-left-upper-shape" class="person3suit" d="M226.5,82.9c0-1.9-0.2-3.4-1.7-3.4h-29.6         c-1.5,0-3.7,1.5-3.7,3.4v0.3c0,1.9,2.2,3.4,3.7,3.4h29.6c1.5,0,1.7-1.5,1.7-3.4V82.9z"/>
					</g>
					<circle id="person-3-front-arms-left-upper-ball" class="ball" cx="196" cy="83" r="4"/>
					<g id="person-3-front-arms-left-upper-socket">
						<circle class="socket" cx="224" cy="83" r="4"/>
					</g>
				</g>
			</g>
			<g id="person-3-front-headneck">
				<!--gid = person-3-front-neck-group--><!--component-detected, new component = --><!--$newComponent/@x = --><!--$ball/@cx = 150--><!--$ball/@cy = 68--><!--$socketId = person-3-front-headneck-socket--><!--$socket/@cx = 150--><!--$socket/@cy = 79.5--><g id="person-3-front-neck-group" transform="translate(0, 11.5) rotate(0, 150, 68)">
					<g id="person-3-front-neck">
						<path id="person-3-front-neck-shape" class="person3flesh" d="M155,62c0-2.8-2.2-5-5-5l0,0c-2.8,0-5,2.2-5,5v6         c0,2.8,2.2,5,5,5l0,0c2.8,0,5-2.2,5-5V62z"/>
					</g>
					<!--gid = person-3-front-head-group--><!--component-detected, new component = --><!--$newComponent/@x = --><!--$ball/@cx = 150--><!--$ball/@cy = 50.5--><!--$socketId = person-3-front-neck-socket--><!--$socket/@cx = 150--><!--$socket/@cy = 62--><g id="person-3-front-head-group" transform="translate(0, 11.5) rotate(0, 150, 50.5)">
						<g id="person-3-front-head">
							<path id="person-3-front-head-shape" class="person3flesh" d="M158.5,36.6c0-3.6-3-6.6-6.6-6.6h-3.8c-3.6,0-6.6,3-6.6,6.6          v8.8c0,3.6,3,6.6,6.6,6.6h3.8c3.6,0,6.6-3,6.6-6.6V36.6z"/>
							<g>
								<!-- hair and facial features -->
							</g>
						</g>
						<circle id="person-3-front-head-ball" class="ball" cx="150" cy="50.5" r="5"/>
					</g>
					<circle id="person-3-front-headneck-ball" class="ball" cx="150" cy="68" r="5"/>
					<g id="person-3-front-neck-socket">
						<circle class="socket" cx="150" cy="62" r="5"/>
					</g>
				</g>
			</g>
		</g>
	</g>
</g>
<g id="Furniture">
	<path id="tabletop" class="furniturewood" d="M20.5,125.6h300.9l20.5,88.9H0L20.5,125.6z"/>
</g>
<g id="Interviewee" transform="translate(-110, 125)"><!--  -->
		<g id="person-me-back">
		<g id="person-me-back-body">
			<g id="person-me-back-legs">
				<g id="person-me-back-legs-left">
					<g id="person-me-back-legs-left-upper-group" transform="translate(-0.5, -22) rotate(0, 465.5, 146.5)">
						<g id="person-me-back-legs-left-lower-group" transform="translate(0, -13) rotate(0, 465.5, 197.5)">
							<g id="person-me-back-legs-left-foot-group" transform="translate(0, -17) rotate(0, 465.5, 256.5)">
								<g id="person-me-back-legs-left-foot">
									<path id="person-me-back-legs-left-foot-shape" class="personmeflesh" d="M280.5,234.5c0,2.8,2.2,2,5,2l0,0
										c2.8,0,5,0.8,5-2v-3c0-2.8-2.2-5-5-5l0,0c-2.8,0-5,2.2-5,5V234.5z"/>
								</g>
								<circle id="person-me-back-legs-left-foot-ball" class="ball" cx="285.5" cy="231.5" r="5"/>
							</g>
							<g id="person-me-back-legs-left-lower">
								<path id="person-me-back-legs-left-lower-shape" class="personmeclothes" d="M290.5,214.5c0,2.8-2.2,5-5,5l0,0
									c-2.8,0-5-2.2-5-5v-42c0-2.8,2.2-5,5-5l0,0c2.8,0,5,2.2,5,5V214.5z"/>
							</g>
							<circle id="person-me-back-legs-left-lower-ball" class="ball" cx="285.5" cy="172.5" r="5"/>
							<g id="person-me-back-legs-left-lower-socket">
								<circle class="socket" cx="285.5" cy="214.5" r="5"/>
							</g>
						</g>
						<g id="person-me-back-legs-left-upper">
							<path id="person-me-back-legs-left-upper-shape" class="personmeclothes" d="M290.5,159.5c0,2.8-2.2,5-5,5l0,0
								c-2.8,0-5-2.2-5-5v-38c0-2.8,2.2-5,5-5l0,0c2.8,0,5,2.2,5,5V159.5z"/>
						</g>
						<circle id="person-me-back-legs-left-upper-right-ball" class="ball" cx="285.5" cy="121.5" r="5"/>
						<g id="person-me-back-legs-left-upper-socket">
							<circle class="socket" cx="285.5" cy="159.5" r="5"/>
						</g>
					</g>
				</g>
				<g id="person-me-back-legs-right">
					<g id="person-me-back-legs-right-upper-group" transform="translate(-0.5, -22) rotate(0, 465.5, 146.5)">
						<g id="person-me-back-legs-right-lower-group" transform="translate(0, -13) rotate(0, 465.5, 197.5)">
							<g id="person-me-back-legs-right-foot-group" transform="translate(0, -17) rotate(0, 465.5, 256.5)">
								<g id="person-me-back-legs-right-foot">
									<path id="person-me-back-legs-right-foot-shape" class="personmeflesh" d="M310.5,234.5c0,2.8,2.2,2,5,2l0,0
										c2.8,0,5,0.8,5-2v-3c0-2.8-2.2-5-5-5l0,0c-2.8,0-5,2.2-5,5V234.5z"/>
								</g>
								<circle id="person-me-back-legs-right-foot-ball" class="ball" cx="315.5" cy="231.5" r="5"/>
							</g>
							<g id="person-me-back-legs-right-lower">
								<path id="person-me-back-legs-right-lower-shape" class="personmeclothes" d="M320.5,214.5c0,2.8-2.2,5-5,5l0,0
									c-2.8,0-5-2.2-5-5v-42c0-2.8,2.2-5,5-5l0,0c2.8,0,5,2.2,5,5V214.5z"/>
							</g>
							<circle id="person-me-back-legs-right-lower-ball" class="ball" cx="315.5" cy="172.5" r="5"/>
							<g id="person-me-back-legs-right-lower-socket">
								<circle class="socket" cx="315.5" cy="214.5" r="5"/>
							</g>
						</g>
						<g id="person-me-back-legs-right-upper">
							<path id="person-me-back-legs-right-upper-shape" class="personmeclothes" d="M320.5,159.5c0,2.8-2.2,5-5,5l0,0
								c-2.8,0-5-2.2-5-5v-38c0-2.8,2.2-5,5-5l0,0c2.8,0,5,2.2,5,5V159.5z"/>
						</g>
						<circle id="person-me-back-legs-right-upper-right-ball" class="ball" cx="315.5" cy="121.5" r="5"/>
						<g id="person-me-back-legs-right-upper-socket">
							<circle class="socket" cx="315.5" cy="159.5" r="5"/>
						</g>
					</g>
				</g>
			</g>
			<g id="person-me-back-arms">
				<g id="person-me-back-arms-left" transform="translate(-26, 0) rotate(-65, 306.5, 58)">
					<g id="person-me-back-arms-left-lower-group" transform="translate(-11, 0) rotate(10, 289.5, 58)">
						<g id="person-me-back-arms-left-hand-group" transform="translate(-11, 0) rotate(0, 267.5, 58)">
							<g id="person-me-back-arms-left-hand">
								<path id="person-me-back-arms-left-hand-shape" class="personmeflesh" d="M257,58c0-1.9,1.6-3.5,3.5-3.5h7
									c1.9,0,3.5,1.6,3.5,3.5l0,0c0,1.9-1.6,3.5-3.5,3.5h-7C258.6,61.5,257,59.9,257,58L257,58z"/>
							</g>
							<circle id="person-me-back-arms-left-hand-ball" class="ball" cx="267.5" cy="58" r="4"/>
						</g>
						<g id="person-me-back-arms-left-lower">
							<path id="person-me-back-arms-left-lower-shape" class="personmeclothes" d="M253,57.8c0-1.9,1.4-3.4,3.1-3.4h33.8
								c1.7,0,3.1,1.5,3.1,3.4v0.3c0,1.9-1.4,3.4-3.1,3.4h-33.8c-1.7,0-3.1-1.5-3.1-3.4V57.8z"/>
						</g>
						<g id="person-me-back-arms-left-lower-socket">
							<circle class="socket" cx="256.5" cy="58" r="4"/>
						</g>
						<circle id="person-me-back-arms-left-lower-ball" class="ball" cx="289.5" cy="58" r="4"/>
					</g>
					<g id="person-me-back-arms-left-upper">
						<path id="person-me-back-arms-left-upper-shape" class="personmeclothes" d="M275,57.8c0-1.9,1.2-3.4,2.7-3.4h29.6
							c1.5,0,2.7,1.5,2.7,3.4v0.3c0,1.9-1.2,3.4-2.7,3.4h-29.6c-1.5,0-2.7-1.5-2.7-3.4V57.8z"/>
					</g>
					<g id="person-me-back-arms-left-upper-socket">
						<circle class="socket" cx="278.5" cy="58" r="4"/>
					</g>
					<circle id="person-me-back-arms-left-upper-ball" class="ball" cx="306.5" cy="58" r="4"/>
				</g>
				<g id="person-me-back-arms-right" transform="translate(-26, 0) rotate(70, 346, 58)">
					<g id="person-me-back-arms-right-lower-group" transform="translate(-11, 0) rotate(0, 535, 83)">
						<g id="person-me-back-arms-right-hand-group" transform="translate(-11, 0) rotate(0, 579, 83)">
							<g id="person-me-back-arms-right-hand">
								<path id="person-me-back-arms-right-hand-shape" class="personmeflesh" d="M439.5,58c0,1.9-1.6,3.5-3.5,3.5h-7
									c-1.9,0-3.5-1.6-3.5-3.5l0,0c0-1.9,1.6-3.5,3.5-3.5h7C437.9,54.5,439.5,56.1,439.5,58L439.5,58z"/>
							</g>
							<circle id="person-me-back-arms-right-hand-ball" class="ball" cx="429" cy="58" r="4"/>
						</g>
						<g id="person-me-back-arms-right-lower">
							<path id="person-me-back-arms-right-lower-shape" class="personmeclothes" d="M421.5,58.1c0,1.9-1.4,3.4-3.1,3.4h-33.8
								c-1.7,0-3.1-1.5-3.1-3.4v-0.3c0-1.9,1.4-3.4,3.1-3.4h33.8c1.7,0,3.1,1.5,3.1,3.4V58.1z"/>
						</g>
						<g id="person-me-back-arms-right-lower-socket">
							<circle class="socket" cx="418" cy="58" r="4"/>
						</g>
						<circle id="person-me-back-arms-right-lower-ball" class="ball" cx="385" cy="58" r="4"/>
					</g>
					<g id="person-me-back-arms-right-upper">
						<path id="person-me-back-arms-right-upper-shape" class="personmeclothes" d="M377.5,58.1c0,1.9-1.2,3.4-2.7,3.4h-29.6
							c-1.5,0-2.7-1.5-2.7-3.4v-0.3c0-1.9,1.2-3.4,2.7-3.4h29.6c1.5,0,2.7,1.5,2.7,3.4V58.1z"/>
					</g>
					<g id="person-me-back-arms-right-upper-socket">
						<circle class="socket" cx="374" cy="58" r="4"/>
					</g>
					<circle id="person-me-back-arms-right-upper-ball" class="ball" cx="346" cy="58" r="4"/>
				</g>
			</g>
			<g id="person-me-back-pelvis-group">
				<g id="person-me-back-pelvis">
					<path id="person-me-back-pelvis-shape" class="personmeclothes" d="M320,99.5c0,6.1-4.9,11-11,11h-18c-6.1,0-11-4.9-11-11l0,0
						c0-6.1,4.9-11,11-11h18C315.1,88.5,320,93.4,320,99.5L320,99.5z"/>
				</g>
				<g id="person-me-back-pelvis-socket-legs-left">
					<circle class="socket" cx="285" cy="99.5" r="5"/>
				</g>
				<g id="person-me-back-pelvis-socket-legs-right">
					<circle class="socket" cx="315" cy="99.5" r="5"/>
				</g>
			</g>
			<g id="person-me-back-torso-group">
				<g id="person-me-back-torso">
					<path id="person-me-back-torso-shape" class="personmeclothes" d="M279.5,61.8c-1,0-3-1.8-3-3.6v-0.3c0-1.9,2.3-3.4,4-3.4h7.1
						h3.2h20.5h3.2h7.1c1.7,0,2,1.5,2,3.4v0.3c0,1.9-1,3.6-3,3.6V67v9.5c0,6.6-3.6,12-9.2,12h-20.5c-5.7,0-11.2-5.4-11.2-12V67v-5.2
						H279.5z"/>
				</g>
				<g id="person-me-back-torso-socket-arms-left">
					<circle class="socket" cx="280" cy="58" r="4"/>
				</g>
				<g id="person-me-back-torso-socket-arms-right">
					<circle class="socket" cx="320" cy="58" r="4"/>
				</g>
				<g id="person-me-back-headneck-socket">
					<circle class="socket" cx="300" cy="54.5" r="5"/>
				</g>
			</g>
			<g id="person-me-back-headneck">
				<g id="person-me-back-neck-group" transform="translate(0, 11.5) rotate(0, 450, 68)">
					<g id="person-me-back-neck">
						<path id="person-me-back-neck-shape" class="personmeflesh" d="M295,37c0-2.8,2.2-5,5-5l0,0c2.8,0,5,2.2,5,5v6
							c0,2.8-2.2,5-5,5l0,0c-2.8,0-5-2.2-5-5V37z"/>
					</g>
					<g id="person-me-back-head-group" transform="translate(0, 11.5) rotate(0, 450, 50.5)">
						<g id="person-me-back-head">
							<path id="person-me-back-head-shape" class="personmeflesh" d="M291.5,11.6c0-3.6,3-6.6,6.6-6.6h3.8c3.6,0,6.6,3,6.6,6.6v8.8
								c0,3.6-3,6.6-6.6,6.6h-3.8c-3.6,0-6.6-3-6.6-6.6V11.6z"/>
							<g id="person-me-back-head-option-4">
								<path class="personmehat" d="M305,59.6c9.1,0,8.5-4.6,10-16.9s2.1-9.5,5.1-11.8s-6.8-1.8-8-4.5s3.5-12.2-1.5-18
									s-4.5-8-10.5-8c-5.2,0-11.2,7.8-11.2,11s2.1,13.6-1.2,17C281.4,34.7,284.5,59.6,305,59.6z"/>
							</g>
							<g id="person-me-back-head-option-3">
								<path class="personmehat" d="M313.5,11c0-6.4-5.5-11.5-13.5-11.5S286.5,4.6,286.5,11c0,11.5,5.5,11.5,13.5,11.5
									S313.5,22.5,313.5,11z"/>
							</g>
							<g id="person-me-back-head-option-2">
								<path class="personmehair" d="M300,1.2c-4.8,0-9.7,4.3-9.8,10.2c-0.1,6.5,5,11.3,9.8,11.3s9.8-4.8,9.8-11.3
									C309.7,5.5,304.8,1.2,300,1.2z"/>
								<ellipse class="personmehair" cx="300" cy="20.2" rx="5" ry="15.5"/>
								<path class="personmehat" d="M300.1,8.9c1.5,0,2.9,0.5,3.8,1.2c0,0,0,0,0,0c0-2.1-1.7-3.9-3.9-3.9s-3.9,1.7-3.9,3.9
									c0,0,0,0.1,0,0.1C297,9.4,298.4,8.9,300.1,8.9z"/>
							</g>
							<g id="person-me-back-head-option-1">
								<path class="personmehair" d="M300.6,2c-3.6,0-6.8,0.3-6.2-2.5c0.7-2.8-5,0.8-5.8,4c-0.8,3.2,2,8.1,2,8.1l1,8.8
									c0,0,1,0.3,5.5,1c1.3,0.2,7,0,7,0l3.5,0c1-1,6.2-10.7,3-13.9C307.5,4.3,306.8,2,300.6,2z"/>
							</g>
						</g>
						<circle id="person-me-back-head-ball" class="ball" cx="300" cy="25.5" r="5"/>
					</g>
					<circle id="person-me-back-headneck-ball" class="ball" cx="300" cy="43" r="5"/>
					<g id="person-me-back-neck-socket">
						<circle class="socket" cx="300" cy="37" r="5"/>
					</g>
				</g>
			</g>
		</g>
	</g>

</g>
</svg>
